<svg width="455" height="117" viewBox="0 0 455 117" fill="none" xmlns="http://www.w3.org/2000/svg">
<path d="M129.42 113.79H125.01C124.58 113.79 124.36 113.57 124.36 113.14V90.48C124.36 90.05 124.58 89.83 125.01 89.83H129.42C129.83 89.83 130.04 90.05 130.04 90.48V113.14C130.04 113.58 129.83 113.79 129.42 113.79Z" fill="#DB364C"/>
<path d="M150.35 113.79H146.01C145.6 113.79 145.39 113.57 145.39 113.14V105.1C145.39 104.09 145.14 103.26 144.65 102.63C144.16 101.99 143.45 101.68 142.51 101.68C141.71 101.68 141 101.99 140.4 102.61C139.79 103.23 139.49 103.91 139.49 104.66V113.15C139.49 113.58 139.28 113.8 138.86 113.8H134.55C134.12 113.8 133.9 113.58 133.9 113.15V97.34C133.9 96.9 134.12 96.69 134.55 96.69H138.86C139.28 96.69 139.49 96.91 139.49 97.34V98.91C140.83 97.2 142.52 96.35 144.57 96.35C146.63 96.35 148.22 97 149.33 98.31C150.44 99.62 151 101.51 151 103.97V113.14C151.01 113.58 150.79 113.79 150.35 113.79Z" fill="#DB364C"/>
<path d="M170.91 113.79H166.57C166.16 113.79 165.95 113.57 165.95 113.14V105.1C165.95 104.09 165.7 103.26 165.21 102.63C164.72 101.99 164.01 101.68 163.07 101.68C162.27 101.68 161.56 101.99 160.96 102.61C160.35 103.23 160.05 103.91 160.05 104.66V113.15C160.05 113.58 159.84 113.8 159.42 113.8H155.11C154.68 113.8 154.46 113.58 154.46 113.15V97.34C154.46 96.9 154.68 96.69 155.11 96.69H159.42C159.84 96.69 160.05 96.91 160.05 97.34V98.91C161.39 97.2 163.08 96.35 165.13 96.35C167.19 96.35 168.78 97 169.89 98.31C171 99.62 171.56 101.51 171.56 103.97V113.14C171.56 113.58 171.34 113.79 170.91 113.79Z" fill="#DB364C"/>
<path d="M175.03 109.71C174.25 108.34 173.86 106.85 173.86 105.24C173.86 103.63 174.25 102.13 175.03 100.77C175.81 99.4 176.88 98.33 178.23 97.54C179.58 96.75 181.07 96.35 182.68 96.35C184.29 96.35 185.78 96.74 187.15 97.54C188.51 98.33 189.59 99.41 190.37 100.77C191.16 102.13 191.55 103.62 191.55 105.24C191.55 106.86 191.16 108.35 190.37 109.71C189.58 111.07 188.51 112.15 187.15 112.94C185.78 113.73 184.29 114.13 182.68 114.13C181.06 114.13 179.58 113.74 178.23 112.94C176.88 112.14 175.81 111.07 175.03 109.71ZM180.3 102.69C179.67 103.36 179.35 104.21 179.35 105.24C179.35 106.27 179.67 107.12 180.3 107.79C180.93 108.46 181.73 108.8 182.69 108.8C183.65 108.8 184.45 108.46 185.1 107.78C185.75 107.1 186.08 106.25 186.08 105.24C186.08 104.23 185.75 103.38 185.1 102.7C184.45 102.02 183.64 101.68 182.69 101.68C181.74 101.68 180.93 102.02 180.3 102.69Z" fill="#DB364C"/>
<path d="M197.46 97.34L200.68 106.23L203.92 97.34C204.05 96.9 204.28 96.69 204.61 96.69H209.09C209.28 96.69 209.41 96.75 209.49 96.87C209.57 96.99 209.57 97.15 209.51 97.34L203.8 113.11C203.63 113.57 203.39 113.8 203.08 113.8H198.32C198.01 113.8 197.77 113.57 197.6 113.11L191.89 97.34C191.81 97.15 191.81 96.99 191.88 96.87C191.95 96.75 192.08 96.69 192.27 96.69H196.75C197.06 96.68 197.3 96.9 197.46 97.34Z" fill="#DB364C"/>
<path d="M227.3 113.79H222.96C222.53 113.79 222.31 113.57 222.31 113.14V111.77C220.86 113.34 219.25 114.13 217.48 114.13C216.02 114.13 214.72 113.73 213.59 112.92C212.45 112.11 211.58 111.04 210.97 109.7C210.36 108.36 210.06 106.87 210.06 105.25C210.06 103.63 210.36 102.14 210.97 100.8C211.58 99.46 212.45 98.38 213.59 97.58C214.73 96.77 216.02 96.37 217.48 96.37C218.49 96.37 219.38 96.58 220.13 96.99C220.88 97.4 221.61 97.98 222.31 98.73V97.36C222.31 96.92 222.53 96.71 222.96 96.71H227.3C227.71 96.71 227.92 96.93 227.92 97.36V113.17C227.92 113.58 227.71 113.79 227.3 113.79ZM216.66 102.69C216.02 103.36 215.7 104.21 215.7 105.24C215.7 106.27 216.02 107.12 216.66 107.79C217.3 108.46 218.1 108.8 219.06 108.8C220.02 108.8 220.82 108.46 221.47 107.78C222.12 107.1 222.44 106.25 222.44 105.24C222.44 104.23 222.12 103.38 221.47 102.7C220.82 102.02 220.02 101.68 219.06 101.68C218.1 101.68 217.3 102.02 216.66 102.69Z" fill="#DB364C"/>
<path d="M242.1 108.57L243.79 112.1C243.91 112.46 243.82 112.72 243.51 112.89C242.04 113.72 240.47 114.14 238.8 114.14C236.87 114.14 235.39 113.61 234.34 112.56C233.29 111.51 232.77 110.02 232.77 108.09V101.82H231.33C231.13 101.82 230.97 101.76 230.85 101.65C230.73 101.53 230.67 101.37 230.67 101.17V97.34C230.67 96.9 230.89 96.69 231.32 96.69H232.76V92.28C232.76 91.84 232.97 91.63 233.38 91.63H237.72C238.15 91.63 238.37 91.85 238.37 92.28V96.69H242.16C242.59 96.69 242.81 96.91 242.81 97.34V101.17C242.81 101.6 242.59 101.82 242.16 101.82H238.37V107.34C238.37 108.32 238.85 108.81 239.81 108.81C240.28 108.81 240.82 108.66 241.45 108.36C241.52 108.34 241.6 108.33 241.7 108.33C241.87 108.31 242 108.4 242.1 108.57Z" fill="#DB364C"/>
<path d="M246.26 90.84C246.26 89.93 246.56 89.16 247.15 88.54C247.75 87.92 248.48 87.61 249.35 87.61C250.26 87.61 251.03 87.92 251.64 88.54C252.25 89.16 252.56 89.92 252.56 90.84C252.56 91.71 252.25 92.44 251.64 93.03C251.03 93.62 250.26 93.92 249.35 93.92C248.48 93.92 247.75 93.63 247.15 93.03C246.56 92.43 246.26 91.71 246.26 90.84ZM251.58 113.79H247.27C246.84 113.79 246.62 113.57 246.62 113.14V97.33C246.62 96.89 246.84 96.68 247.27 96.68H251.58C252.01 96.68 252.23 96.9 252.23 97.33V113.14C252.23 113.58 252.01 113.79 251.58 113.79Z" fill="#DB364C"/>
<path d="M256.12 109.71C255.34 108.34 254.95 106.85 254.95 105.24C254.95 103.63 255.34 102.13 256.12 100.77C256.9 99.4 257.97 98.33 259.32 97.54C260.67 96.75 262.16 96.35 263.77 96.35C265.38 96.35 266.87 96.74 268.24 97.54C269.6 98.33 270.68 99.41 271.46 100.77C272.25 102.13 272.64 103.62 272.64 105.24C272.64 106.86 272.25 108.35 271.46 109.71C270.67 111.07 269.6 112.15 268.24 112.94C266.87 113.73 265.38 114.13 263.77 114.13C262.15 114.13 260.67 113.74 259.32 112.94C257.97 112.14 256.9 111.07 256.12 109.71ZM261.38 102.69C260.75 103.36 260.43 104.21 260.43 105.24C260.43 106.27 260.75 107.12 261.38 107.79C262.01 108.46 262.81 108.8 263.77 108.8C264.73 108.8 265.53 108.46 266.18 107.78C266.83 107.1 267.16 106.25 267.16 105.24C267.16 104.23 266.83 103.38 266.18 102.7C265.53 102.02 264.72 101.68 263.77 101.68C262.82 101.68 262.02 102.02 261.38 102.69Z" fill="#DB364C"/>
<path d="M291.66 113.79H287.32C286.91 113.79 286.7 113.57 286.7 113.14V105.1C286.7 104.09 286.45 103.26 285.96 102.63C285.47 101.99 284.76 101.68 283.82 101.68C283.02 101.68 282.31 101.99 281.71 102.61C281.1 103.23 280.8 103.91 280.8 104.66V113.15C280.8 113.58 280.59 113.8 280.17 113.8H275.86C275.43 113.8 275.21 113.58 275.21 113.15V97.34C275.21 96.9 275.43 96.69 275.86 96.69H280.17C280.59 96.69 280.8 96.91 280.8 97.34V98.91C282.14 97.2 283.83 96.35 285.88 96.35C287.94 96.35 289.53 97 290.64 98.31C291.75 99.62 292.31 101.51 292.31 103.97V113.14C292.31 113.58 292.09 113.79 291.66 113.79Z" fill="#DB364C"/>
<path d="M298.04 108.08C299.27 109.02 300.4 109.48 301.43 109.48C301.92 109.48 302.29 109.42 302.53 109.3C302.77 109.18 302.9 108.97 302.9 108.66C302.9 108.42 302.76 108.2 302.47 108C302.18 107.8 301.82 107.62 301.36 107.46C300.9 107.29 300.4 107.11 299.85 106.92C299.3 106.73 298.74 106.49 298.19 106.19C297.64 105.89 297.13 105.55 296.67 105.16C296.21 104.77 295.84 104.26 295.56 103.64C295.28 103.02 295.13 102.32 295.13 101.54C295.13 100.04 295.74 98.79 296.96 97.81C298.18 96.83 299.69 96.34 301.5 96.34C302.66 96.34 303.74 96.54 304.75 96.93C305.76 97.32 306.57 97.82 307.18 98.41C307.43 98.72 307.4 99.02 307.11 99.31L304.9 101.67C304.74 101.83 304.59 101.9 304.43 101.9C304.27 101.9 304.11 101.84 303.95 101.73C303.06 101.21 302.25 100.94 301.53 100.94C300.68 100.94 300.26 101.14 300.26 101.53C300.26 101.72 300.4 101.9 300.69 102.07C300.97 102.24 301.34 102.41 301.8 102.56C302.26 102.71 302.76 102.89 303.31 103.1C303.86 103.3 304.42 103.55 304.97 103.86C305.53 104.17 306.03 104.52 306.49 104.93C306.95 105.34 307.32 105.86 307.6 106.5C307.88 107.14 308.03 107.86 308.03 108.65C308.03 110.17 307.42 111.45 306.2 112.52C304.98 113.58 303.35 114.12 301.31 114.12C298.68 114.12 296.51 113.2 294.81 111.36C294.53 110.99 294.56 110.64 294.91 110.29L296.96 108.07C297.12 107.92 297.29 107.84 297.48 107.84C297.7 107.85 297.89 107.92 298.04 108.08Z" fill="#DB364C"/>
<path d="M325.88 113.79H321.47C321.04 113.79 320.82 113.57 320.82 113.14V90.48C320.82 90.05 321.04 89.83 321.47 89.83H325.88C326.29 89.83 326.5 90.05 326.5 90.48V113.14C326.5 113.58 326.29 113.79 325.88 113.79Z" fill="#DB364C"/>
<path d="M346.82 113.79H342.48C342.07 113.79 341.86 113.57 341.86 113.14V105.1C341.86 104.09 341.61 103.26 341.12 102.63C340.63 101.99 339.92 101.68 338.98 101.68C338.18 101.68 337.47 101.99 336.87 102.61C336.26 103.23 335.96 103.91 335.96 104.66V113.15C335.96 113.58 335.75 113.8 335.33 113.8H331.02C330.59 113.8 330.37 113.58 330.37 113.15V97.34C330.37 96.9 330.59 96.69 331.02 96.69H335.33C335.75 96.69 335.96 96.91 335.96 97.34V98.91C337.3 97.2 338.99 96.35 341.04 96.35C343.1 96.35 344.69 97 345.8 98.31C346.91 99.62 347.47 101.51 347.47 103.97V113.14C347.47 113.58 347.25 113.79 346.82 113.79Z" fill="#DB364C"/>
<path d="M361.65 108.35L364.04 111.74C364.25 112.1 364.18 112.38 363.84 112.59C362.24 113.62 360.49 114.13 358.59 114.13C356.97 114.13 355.49 113.74 354.14 112.94C352.79 112.14 351.72 111.07 350.94 109.71C350.16 108.34 349.77 106.85 349.77 105.24C349.77 103.63 350.16 102.13 350.94 100.77C351.72 99.4 352.79 98.33 354.14 97.54C355.49 96.75 356.98 96.35 358.59 96.35C360.45 96.35 362.2 96.89 363.84 97.95C364 98.07 364.09 98.22 364.12 98.39C364.15 98.56 364.11 98.72 364 98.87L361.61 102.16C361.49 102.34 361.33 102.43 361.12 102.43C361 102.43 360.87 102.4 360.74 102.33C360.07 101.89 359.35 101.68 358.58 101.68C357.62 101.68 356.83 102.02 356.19 102.69C355.55 103.36 355.24 104.21 355.24 105.24C355.24 106.27 355.56 107.12 356.19 107.79C356.82 108.46 357.62 108.8 358.58 108.8C359.37 108.8 360.13 108.61 360.85 108.22C360.98 108.15 361.11 108.12 361.22 108.12C361.43 108.11 361.56 108.19 361.65 108.35Z" fill="#DB364C"/>
<path d="M163.38 78.19H126.3C125 78.19 124.35 77.54 124.35 76.24V8.58C124.35 7.28 125 6.62999 126.3 6.62999H139.47C140.7 6.62999 141.32 7.28 141.32 8.58V61.62H163.38C164.61 61.62 165.23 62.24 165.23 63.47V76.24C165.23 77.54 164.61 78.19 163.38 78.19Z" fill="white"/>
<path d="M172.46 9.62999C172.46 6.89999 173.35 4.60999 175.13 2.76999C176.91 0.919989 179.1 0 181.69 0C184.42 0 186.7 0.919989 188.53 2.76999C190.36 4.61999 191.27 6.89999 191.27 9.62999C191.27 12.22 190.35 14.4 188.53 16.17C186.7 17.93 184.42 18.81 181.69 18.81C179.1 18.81 176.91 17.93 175.13 16.17C173.35 14.4 172.46 12.23 172.46 9.62999ZM188.33 78.19H175.46C174.16 78.19 173.51 77.54 173.51 76.24V29.04C173.51 27.74 174.16 27.09 175.46 27.09H188.33C189.63 27.09 190.28 27.74 190.28 29.04V76.24C190.27 77.54 189.63 78.19 188.33 78.19Z" fill="white"/>
<path d="M216.62 78.19H203.75C202.45 78.19 201.8 77.54 201.8 76.24V3.48999C201.8 2.18999 202.45 1.53999 203.75 1.53999H216.62C217.88 1.53999 218.52 2.18999 218.52 3.48999V33.13C220.15 30.97 222.23 29.25 224.76 27.99C227.29 26.73 230.05 26.09 233.04 26.09C237.36 26.09 241.22 27.3 244.62 29.71C248.01 32.12 250.62 35.34 252.43 39.37C254.24 43.4 255.15 47.82 255.15 52.64C255.15 57.5 254.24 61.94 252.43 65.96C250.62 69.99 248.01 73.2 244.62 75.59C241.23 77.99 237.37 79.18 233.04 79.18C227.15 79.18 222.31 76.83 218.52 72.14V76.23C218.52 77.54 217.88 78.19 216.62 78.19ZM235.48 60.25C237.41 58.24 238.37 55.7 238.37 52.64C238.37 49.58 237.41 47.04 235.48 45.03C233.55 43.02 231.14 42.01 228.24 42.01C225.38 42.01 222.99 43.02 221.08 45.03C219.17 47.04 218.21 49.58 218.21 52.64C218.21 55.7 219.17 58.24 221.08 60.25C222.99 62.26 225.38 63.27 228.24 63.27C231.14 63.27 233.55 62.27 235.48 60.25Z" fill="white"/>
<path d="M286.38 65.22C290.11 65.22 293.75 64.41 297.31 62.77C297.71 62.57 298.08 62.47 298.41 62.47C298.84 62.47 299.36 62.77 299.96 63.37L305.8 71.55C306.13 71.95 306.25 72.39 306.15 72.87C306.05 73.35 305.77 73.73 305.3 73.99C299.48 77.45 292.99 79.18 285.84 79.18C282.31 79.18 278.92 78.47 275.66 77.06C272.4 75.65 269.58 73.75 267.2 71.37C264.82 68.99 262.92 66.16 261.51 62.89C260.09 59.61 259.39 56.2 259.39 52.64C259.39 48.08 260.43 43.79 262.51 39.77C264.59 35.75 267.58 32.46 271.49 29.91C275.4 27.37 279.75 26.09 284.54 26.09C289.86 26.09 294.49 27.46 298.41 30.18C302.34 32.91 305.26 36.51 307.19 40.98C309.12 45.45 310.08 50.47 310.08 56.02C310.08 57.38 309.4 58.07 308.03 58.07H275.45C276.18 60.1 277.51 61.8 279.44 63.16C281.37 64.54 283.68 65.22 286.38 65.22ZM275.45 46.31H293.81C293.14 44.02 292.03 42.2 290.47 40.87C288.91 39.54 286.93 38.87 284.53 38.87C282.23 38.87 280.3 39.57 278.72 40.97C277.14 42.36 276.05 44.14 275.45 46.31Z" fill="white"/>
<path d="M319.66 27.1H332.53C333.79 27.1 334.43 27.75 334.43 29.05V34.59H334.58C335.61 32.36 337.26 30.39 339.52 28.68C341.78 26.97 344.28 26.11 347 26.11C350.46 26.11 353.12 26.68 354.98 27.81C355.48 28.11 355.75 28.52 355.8 29.03C355.85 29.54 355.77 30.1 355.58 30.7L352.14 42.63C351.84 43.26 351.36 43.58 350.69 43.58C350.29 43.58 349.96 43.51 349.69 43.38C348.16 42.81 346.66 42.53 345.2 42.53C342.07 42.53 339.49 43.64 337.47 45.85C335.44 48.06 334.43 51.15 334.43 55.11V76.27C334.43 77.57 333.8 78.22 332.53 78.22H319.66C318.36 78.22 317.71 77.57 317.71 76.27V29.07C317.72 27.74 318.36 27.1 319.66 27.1Z" fill="white"/>
<path d="M392.66 62.57L397.7 73.1C398.07 74.17 397.78 74.95 396.85 75.45C392.46 77.95 387.77 79.19 382.78 79.19C377.02 79.19 372.58 77.62 369.46 74.47C366.34 71.32 364.77 66.88 364.77 61.12V42.41H360.48C359.88 42.41 359.41 42.24 359.06 41.89C358.71 41.54 358.54 41.07 358.54 40.47V29.04C358.54 27.74 359.19 27.09 360.49 27.09H364.78V13.92C364.78 12.62 365.4 11.97 366.63 11.97H379.6C380.9 11.97 381.55 12.62 381.55 13.92V27.09H392.88C394.18 27.09 394.83 27.74 394.83 29.04V40.47C394.83 41.77 394.18 42.42 392.88 42.42H381.55V58.89C381.55 61.82 382.98 63.28 385.84 63.28C387.24 63.28 388.87 62.83 390.73 61.93C390.93 61.86 391.18 61.83 391.48 61.83C391.96 61.82 392.36 62.07 392.66 62.57Z" fill="white"/>
<path d="M454.54 29.04V74.7C454.54 83.35 451.89 90.43 446.58 95.96C441.27 101.48 434.36 104.24 425.85 104.24C421.82 104.24 417.98 103.46 414.32 101.9C410.66 100.34 407.75 98.32 405.59 95.86C404.82 95.09 404.79 94.28 405.49 93.41L412.13 84.53C412.53 83.93 412.98 83.63 413.48 83.63C413.81 83.63 414.15 83.8 414.48 84.13C415.71 85.43 417.29 86.45 419.22 87.2C421.15 87.95 423.23 88.32 425.46 88.32C427.69 88.32 429.63 87.97 431.3 87.27C432.96 86.57 434.25 85.63 435.17 84.45C436.08 83.27 436.75 82.01 437.17 80.68C437.59 79.35 437.79 77.94 437.79 76.44V71.45C436.69 73.28 434.67 74.86 431.73 76.19C428.79 77.52 425.77 78.19 422.67 78.19C416.55 78.19 411.83 76.23 408.52 72.3C405.21 68.38 403.55 62.74 403.55 55.38V29.03C403.55 27.73 404.17 27.08 405.4 27.08H418.37C419.67 27.08 420.32 27.73 420.32 29.03V52.03C420.32 55.06 421.03 57.52 422.47 59.41C423.9 61.31 426.01 62.25 428.81 62.25C431.57 62.25 433.76 61.39 435.37 59.66C436.98 57.93 437.79 55.82 437.79 53.32V29.02C437.79 27.72 438.44 27.07 439.74 27.07H452.71C453.92 27.1 454.54 27.74 454.54 29.04Z" fill="white"/>
<path d="M32.41 91.1L86.05 37.46C87.83 35.68 87.74 32.82 85.95 31.04C85.93 31.02 85.91 31 85.88 30.97C84.1 29.18 81.24 29.09 79.46 30.87L25.74 84.59C24 86.33 24.02 89.11 25.71 90.88C25.77 90.94 25.82 91 25.88 91.06C27.62 92.94 30.6 92.9 32.41 91.1Z" fill="white"/>
<path d="M29.11 93.46C29.07 93.46 29.04 93.46 29 93.46C27.51 93.43 26.14 92.82 25.15 91.75L24.99 91.58C22.9 89.39 22.92 86.01 25.03 83.89L78.75 30.17C79.77 29.15 81.13 28.58 82.58 28.58H82.59C84.09 28.58 85.51 29.18 86.59 30.27C87.74 31.41 88.33 32.83 88.34 34.33C88.34 35.78 87.78 37.14 86.75 38.16L33.11 91.8C32.06 92.86 30.61 93.46 29.11 93.46ZM82.58 30.58C81.67 30.58 80.81 30.93 80.17 31.58L26.45 85.3C25.11 86.64 25.1 88.79 26.44 90.2L26.58 90.35C27.24 91.07 28.11 91.45 29.05 91.47C30.02 91.47 31.01 91.1 31.7 90.4L85.34 36.76C85.99 36.11 86.34 35.26 86.34 34.34C86.34 33.37 85.95 32.45 85.24 31.75C84.47 30.97 83.55 30.58 82.58 30.58Z" fill="white"/>
<path d="M18.87 19.95H77.37C79.45 19.95 81.26 18.51 81.72 16.49C81.75 16.37 81.78 16.25 81.81 16.13C82.51 13.34 80.34 10.65 77.46 10.65H9.57001C7.10001 10.65 5.10001 12.65 5.10001 15.12V82.16C5.10001 85.04 7.79 87.22 10.58 86.51C10.7 86.48 10.82 86.45 10.94 86.42C12.97 85.96 14.4 84.15 14.4 82.07V24.43C14.4 21.96 16.4 19.95 18.87 19.95Z" fill="white"/>
<path d="M9.51001 87.64C8.33001 87.64 7.18001 87.25 6.21001 86.5C4.86001 85.45 4.09001 83.87 4.09001 82.16V15.12C4.09001 12.1 6.55001 9.64999 9.56001 9.64999H77.45C79.16 9.64999 80.74 10.42 81.79 11.77C82.82 13.09 83.18 14.77 82.77 16.38L82.69 16.72C82.12 19.22 79.93 20.96 77.36 20.96H18.86C16.94 20.96 15.39 22.52 15.39 24.43V82.07C15.39 84.64 13.64 86.83 11.15 87.4L10.81 87.48C10.38 87.58 9.94001 87.64 9.51001 87.64ZM9.56001 11.64C7.64001 11.64 6.09001 13.2 6.09001 15.11V82.15C6.09001 83.24 6.58 84.25 7.44 84.91C8.27 85.56 9.32 85.78 10.33 85.53L10.71 85.44C12.3 85.08 13.4 83.69 13.4 82.06V24.42C13.4 21.4 15.86 18.95 18.87 18.95H77.37C79 18.95 80.39 17.85 80.75 16.26L80.84 15.87C81.09 14.86 80.87 13.81 80.22 12.98C79.55 12.12 78.54 11.63 77.46 11.63H9.56001V11.64Z" fill="white"/>
<path d="M92.49 102.52H33.78C31.8 102.52 30.01 103.81 29.49 105.72C29.46 105.84 29.42 105.96 29.39 106.08C28.54 108.95 30.68 111.82 33.67 111.82H101.8C104.27 111.82 106.27 109.82 106.27 107.35V39.46C106.27 36.58 103.58 34.4 100.79 35.11C100.67 35.14 100.55 35.17 100.43 35.2C98.4 35.66 96.97 37.47 96.97 39.55V98.04C96.97 100.52 94.97 102.52 92.49 102.52Z" fill="white"/>
<path d="M101.8 112.83H33.67C31.93 112.83 30.34 112.03 29.29 110.64C28.25 109.24 27.93 107.48 28.42 105.8L28.52 105.46C29.14 103.14 31.3 101.51 33.77 101.51H92.48C94.4 101.51 95.95 99.95 95.95 98.04V39.54C95.95 36.97 97.7 34.78 100.19 34.21L100.53 34.13C102.14 33.72 103.82 34.08 105.14 35.11C106.49 36.16 107.26 37.74 107.26 39.45V107.34C107.28 110.38 104.82 112.83 101.8 112.83ZM33.79 103.52C32.22 103.52 30.86 104.53 30.47 105.98L30.36 106.37C30.05 107.44 30.25 108.56 30.91 109.44C31.57 110.32 32.58 110.83 33.68 110.83H101.81C103.73 110.83 105.28 109.27 105.28 107.36V39.47C105.28 38.38 104.79 37.38 103.93 36.71C103.1 36.06 102.05 35.84 101.04 36.09L100.65 36.18C99.07 36.54 97.96 37.93 97.96 39.56V98.06C97.96 101.08 95.5 103.53 92.49 103.53H33.79V103.52Z" fill="white"/>
<path d="M99.8 27.18C105.356 27.18 109.86 22.676 109.86 17.12C109.86 11.564 105.356 7.06 99.8 7.06C94.244 7.06 89.74 11.564 89.74 17.12C89.74 22.676 94.244 27.18 99.8 27.18Z" fill="#DB364C"/>
<path d="M99.8 28.68C93.43 28.68 88.24 23.49 88.24 17.12C88.24 10.75 93.43 5.56 99.8 5.56C106.17 5.56 111.36 10.75 111.36 17.12C111.36 23.49 106.18 28.68 99.8 28.68ZM99.8 8.56C95.08 8.56 91.24 12.4 91.24 17.12C91.24 21.84 95.08 25.68 99.8 25.68C104.52 25.68 108.36 21.84 108.36 17.12C108.36 12.4 104.52 8.56 99.8 8.56Z" fill="#DB364C"/>
<path d="M11.56 115.42C17.116 115.42 21.62 110.916 21.62 105.36C21.62 99.804 17.116 95.3 11.56 95.3C6.00403 95.3 1.5 99.804 1.5 105.36C1.5 110.916 6.00403 115.42 11.56 115.42Z" fill="#DB364C"/>
<path d="M11.56 116.92C5.19001 116.92 0 111.73 0 105.36C0 98.99 5.19001 93.8 11.56 93.8C17.93 93.8 23.12 98.99 23.12 105.36C23.12 111.73 17.94 116.92 11.56 116.92ZM11.56 96.8C6.84001 96.8 3 100.64 3 105.36C3 110.08 6.84001 113.92 11.56 113.92C16.28 113.92 20.12 110.08 20.12 105.36C20.12 100.64 16.28 96.8 11.56 96.8Z" fill="#DB364C"/>
</svg>
