<svg width="250" height="54" viewBox="0 0 250 54" fill="none" xmlns="http://www.w3.org/2000/svg">
<path d="M23.4443 0.00292969C23.7548 0.782004 23.516 21.3939 23.6025 24.0459C25.1404 23.8113 29.2546 23.9258 31.1934 23.8457C31.3485 25.5922 31.1795 28.8257 31.2324 30.8418C33.0822 31.0655 36.7407 30.9677 38.7188 30.9668L51.7773 30.96L96.4277 30.9619L249.914 30.9805L249.87 33.4717L206.175 33.4521H90.8379L53.0049 33.4463C45.8415 33.4439 38.3025 33.3315 31.1768 33.5059L31.2656 40.5283L23.5645 40.5029C23.4406 44.5957 23.5454 49.2437 23.541 53.3818L20.9355 53.377C21.1419 49.5083 21.0085 44.4621 20.9863 40.5166L13.1621 40.499C13.3325 38.4145 13.2795 35.6839 13.3262 33.5215C12.5656 33.4567 11.6931 33.4385 10.9238 33.4512C7.32062 33.5105 3.59292 33.3125 0.00390625 33.5361L0 30.9316C3.93919 31.0327 9.30289 31.0432 13.207 30.9131C13.3557 28.6944 13.2683 26.1315 13.1982 23.9092C15.6636 23.8355 18.4937 23.9228 20.9697 23.9541C21.1992 16.3394 21.0118 7.69434 20.9902 0L23.4443 0.00292969ZM20.9971 33.5625C19.1696 33.3983 17.0608 33.4397 15.2139 33.5039C15.0625 34.4845 15.1359 37.3722 15.1406 38.5127C17.0922 38.5727 19.0446 38.5936 20.9971 38.5752V33.5625ZM23.5615 33.458L23.5547 38.5576C25.4126 38.5606 27.4988 38.6119 29.3379 38.5586C29.3099 36.8675 29.311 35.1755 29.3398 33.4844C27.4141 33.4442 25.4876 33.4354 23.5615 33.458ZM23.5986 25.7705C23.5458 27.5043 23.5342 29.2393 23.5635 30.9736C25.1269 30.9697 27.8354 31.03 29.2969 30.875L29.3125 25.8408C27.5998 25.8454 25.2461 25.9093 23.5986 25.7705ZM20.9492 25.8799C19.0158 25.8335 17.081 25.8305 15.1475 25.8711L15.1582 30.8291C16.9989 31.0418 19.1107 30.9571 20.9922 30.9668C20.9981 29.3119 21.0403 27.5218 20.9492 25.8799ZM230.709 5.08398C235.455 4.96127 238.558 6.69964 239.968 11.4277C238.625 11.4838 237.391 11.4701 236.051 11.4521C235.647 10.765 235.366 10.1766 234.729 9.68066C229.234 5.40845 224.012 13.9512 229.178 17.5693C230.161 18.2605 231.383 18.5266 232.565 18.3086C234.304 17.9809 235.079 16.9436 235.963 15.5996C236.773 15.031 238.579 15.2556 239.811 15.208L240.023 15.5938C240.084 16.5961 239.625 17.2804 239.057 18.1104C237.751 20.0584 235.695 21.3773 233.381 21.7539C231.082 22.1208 228.3 21.7669 226.404 20.3213C224.706 19.0438 223.597 17.1324 223.333 15.0234C222.629 9.7323 225.275 5.77121 230.709 5.08398ZM243.415 17.6201C244.539 17.277 245.731 17.8875 246.107 18.999C246.485 20.1106 245.911 21.3212 244.812 21.7324C244.07 22.0098 243.235 21.8617 242.634 21.3457C242.034 20.8296 241.762 20.027 241.924 19.252C242.087 18.4767 242.658 17.8515 243.415 17.6201ZM201.963 5.25879C202.081 5.22899 202.221 5.26203 202.355 5.27637C202.703 5.85924 202.657 20.0617 202.514 21.6719C201.544 21.637 200.54 21.6335 199.565 21.6172C199.179 21.6281 199.314 21.6458 198.953 21.5186C198.622 20.454 198.844 7.30987 198.829 5.31152L201.963 5.25879ZM87.165 5.35156C92.7745 5.29606 101.721 3.96396 99.6963 13.0459C99.4022 14.3649 98.1692 15.3305 97.0225 15.9043C97.869 17.3858 99.7391 20.1672 100.199 21.6699L97.8652 21.5225L96.0039 21.5488C95.2238 20.5071 93.769 17.8903 93.0635 16.6826C92.3169 16.6375 91.5078 16.6282 90.7549 16.6045C90.7685 18.2446 90.7934 19.8846 90.8311 21.5244L86.96 21.5303C87.0329 19.2691 86.7863 6.35976 87.165 5.35156ZM53.1875 5.3418C53.3102 6.38918 53.2395 9.50707 53.2402 10.6924C53.2528 14.3497 53.2433 18.0077 53.2129 21.665C52.0461 21.6114 50.7784 21.6355 49.6016 21.6367C49.4002 20.6629 49.4301 16.2926 49.458 15.0215C49.5254 11.9644 49.3516 8.28504 49.5752 5.28418C50.786 5.31921 51.8509 5.30284 53.0635 5.26855L53.1875 5.3418ZM116.06 8.78711L110.792 8.83984C110.981 10.9119 110.879 14.0072 110.867 16.1611C110.916 17.939 110.888 19.861 110.895 21.6494C109.492 21.5074 108.539 21.5128 107.119 21.5283L107.135 8.83105L102.045 8.79688C102.034 7.5895 102.002 6.51494 102.144 5.30859C106.301 5.45438 111.881 5.37483 116.053 5.29688L116.06 8.78711ZM73.0156 5.24316C74.649 5.45328 81.7652 5.36905 83.5693 5.26074C83.7263 6.44953 83.6848 7.42585 83.624 8.61523C81.8622 8.43655 78.6289 8.49902 76.7754 8.48633C76.7321 9.53617 76.7559 10.727 76.7539 11.7891C78.5793 11.6315 80.973 11.7923 82.9922 11.6729C83.0263 12.7251 82.9874 13.8953 82.9736 14.958C80.9333 14.8731 78.8022 14.8924 76.7598 14.9043C76.7241 16.0251 76.7614 17.2671 76.7725 18.3984C77.9505 18.2953 82.536 18.242 83.6436 18.3936C84.2118 19.0715 84.0359 20.6534 84.0264 21.6035C81.477 21.4744 75.4955 21.3597 73.0068 21.6475C72.9008 19.845 72.973 17.3193 72.9736 15.4717C72.959 12.0623 72.9732 8.65239 73.0156 5.24316ZM39.9023 5.31055C40.0741 9.07148 39.9084 14.1672 39.8857 18.0107C42.2053 18.079 44.713 18.0378 47.0469 18.043C47.0513 19.2632 47.0654 20.4062 46.9775 21.627C44.3395 21.3682 38.9333 21.5066 36.1289 21.5225C36.1535 19.5977 35.9975 6.06321 36.3281 5.36621C37.4613 5.31545 38.7554 5.32747 39.9023 5.31055ZM117.001 5.2168C118.178 5.42135 119.772 5.33484 120.999 5.31641C122.09 6.85836 123.815 10.2794 124.729 12.0303C125.544 10.2513 126.919 7.40645 128.034 5.77832C128.41 5.22751 131.249 5.30991 132.234 5.23438L132.34 5.33203C132.105 6.65647 129.778 10.3615 128.981 11.8604C126.149 16.3449 126.483 16.2034 126.62 21.6016C125.81 21.5895 123.416 21.6576 122.897 21.2607C122.579 19.7189 123.032 17.2842 122.588 15.8975C121.819 13.5057 117.203 7.34451 117.001 5.2168ZM220.328 5.23438C220.413 7.05283 220.522 20.601 220.247 21.5439L219.812 21.5996C219.216 21.5361 217.498 21.6577 217.099 21.2695C214.434 18.678 212.523 14.3713 209.956 11.7656C210.287 14.5534 210.163 18.6355 210.175 21.5742C208.956 21.5168 207.643 21.5445 206.415 21.5479C206.355 16.9922 206.431 12.423 206.399 7.86621C206.393 7.01855 206.386 6.17307 206.46 5.32812C207.315 5.31468 209.299 5.14348 209.838 5.81152C212.192 8.72372 214.523 12.0286 216.67 15.082C216.566 11.9624 216.627 8.54221 216.619 5.40039C217.739 5.29888 219.1 5.32741 220.328 5.23438ZM62.3623 5.31152C66.3115 5.12209 70.6299 6.01267 69.583 11.084C69.5429 11.2711 68.4339 12.8509 68.2539 13.1387C68.2077 13.8639 69.7464 14.5198 70.0312 15.6953C70.3905 17.177 70.2171 18.1452 69.5371 19.4717C67.3206 22.3077 64.6186 21.4169 61.4414 21.5273C59.9876 21.578 58.4673 21.5218 57.0098 21.5195C56.9305 17.2419 56.995 10.1588 57.0273 5.61035C57.0892 5.531 57.151 5.45142 57.2129 5.37207C58.8556 5.2961 60.6695 5.39265 62.3623 5.31152ZM60.7617 14.7031L60.6982 18.6484C62.656 18.695 64.1326 18.9455 65.8359 17.9355C68.0404 14.5001 62.6732 14.6805 60.7617 14.7031ZM95.6074 12.6396C97.8824 8.65423 93.3929 8.45272 90.6777 8.55273C90.6809 10.1217 90.6582 11.7637 90.6982 13.3262C92.3753 13.4091 94.2156 13.6703 95.6074 12.6396ZM60.7148 11.8408C62.2352 11.8723 64.2283 12.1152 65.4443 11.2568C67.135 7.94766 62.7207 8.37467 60.7627 8.32617L60.7148 11.8408Z" fill="#093160"/>
<path d="M147.153 5.08071C151.748 5.19106 154.344 6.93626 155.759 11.3737C154.501 11.4479 153.244 11.4661 151.987 11.3688C150.269 8.57448 148.592 8.47284 145.628 8.86196C145.09 9.31058 144.516 9.7633 144.068 10.3063C141.25 13.7154 143.826 19.0072 148.399 18.2213C150.373 17.8819 151.118 16.7839 152.171 15.2721C152.555 15.1698 155.277 15.204 155.996 15.1754C154.573 19.1472 153.478 20.974 149.077 21.7389C137.181 23.8071 135.05 5.90783 147.153 5.08071ZM163.537 5.24868C164.651 5.36032 165.765 5.32761 166.884 5.31899C167.724 6.76116 168.764 9.61744 169.412 11.2506L173.508 21.6461C172.167 21.5851 171.044 21.5983 169.699 21.6305C168.478 19.86 169.248 18.7791 166.896 18.7555L162.027 18.7467C161.578 19.7003 161.329 20.5518 160.799 21.6188C159.444 21.562 158.423 21.5476 157.068 21.6032C157.917 18.7795 159.43 15.2646 160.516 12.4752C161.271 10.5347 162.604 6.99316 163.537 5.24868ZM175.703 5.27114C179.878 5.61997 185.294 4.40378 188.493 7.7897C191.442 10.9102 191.263 16.491 188.234 19.4635C185.271 22.3813 179.639 21.4198 175.678 21.6256C175.501 19.2864 175.602 15.6642 175.601 13.2516C175.601 11.0795 175.495 7.31752 175.703 5.27114ZM184.796 9.71548C183.23 8.6717 181.172 8.7672 179.358 8.82974C179.377 11.936 179.381 15.0428 179.366 18.1491C181.674 18.1826 183.467 18.4246 185.356 16.9C186.289 15.6123 186.908 14.2151 186.655 12.5797C186.461 11.4074 185.787 10.369 184.796 9.71548ZM164.95 10.3297C164.505 12.1231 163.699 14.1419 163.043 15.8961C163.906 15.8543 164.556 15.8297 165.423 15.8581L167.425 15.904C167.043 14.8651 165.756 10.5925 164.95 10.3297Z" fill="#FF0000"/>
</svg>
