<svg width="773" height="167" viewBox="0 0 773 167" fill="none" xmlns="http://www.w3.org/2000/svg">
<path d="M72.4898 0.00906034C73.4498 2.41842 72.7115 66.1626 72.9789 74.3642C77.7341 73.6387 90.4552 73.9928 96.45 73.745C96.9296 79.1462 96.407 89.1462 96.5706 95.3811C102.29 96.0729 113.602 95.7705 119.719 95.7677L160.095 95.7467L298.154 95.7525L772.734 95.8101L772.598 103.514L637.493 103.454H280.871L163.891 103.436C141.742 103.428 118.431 103.081 96.3987 103.62L96.6732 125.338L72.8614 125.259C72.4783 137.916 72.8024 152.291 72.7888 165.088L64.7326 165.073C65.3708 153.109 64.9583 137.503 64.8896 125.301L40.6972 125.247C41.2241 118.8 41.0602 110.356 41.2046 103.668C38.8528 103.468 36.1551 103.412 33.7764 103.451C22.6354 103.634 11.1093 103.022 0.0120781 103.713L0 95.6588C12.18 95.9715 28.7645 96.004 40.836 95.6016C41.2958 88.7401 41.0256 80.8141 40.8088 73.9414C48.4319 73.7135 57.1825 73.9835 64.8383 74.0803C65.5479 50.5311 64.9685 23.7955 64.9017 0L72.4898 0.00906034ZM64.923 103.795C59.2724 103.287 52.752 103.415 47.0414 103.614C46.5732 106.647 46.8002 115.577 46.8147 119.104C52.8491 119.29 58.8859 119.354 64.923 119.297V103.795ZM72.8522 103.472L72.8311 119.243C78.5758 119.252 85.0263 119.411 90.7128 119.246C90.6262 114.016 90.6296 108.784 90.7187 103.554C84.7644 103.429 78.8077 103.402 72.8522 103.472ZM72.9669 79.6977C72.8036 85.0596 72.7677 90.4252 72.8583 95.7887C77.6924 95.7767 86.0671 95.9632 90.586 95.4838L90.6343 79.9151C85.3386 79.9293 78.0609 80.1269 72.9669 79.6977ZM64.7749 80.036C58.7969 79.8925 52.8145 79.8832 46.8361 80.0088L46.8692 95.3418C52.5606 95.9996 59.0903 95.7377 64.9079 95.7677C64.9261 90.6498 65.0566 85.1137 64.7749 80.036ZM713.352 15.7227C728.027 15.3432 737.621 20.7193 741.981 35.3412C737.829 35.5147 734.013 35.4723 729.87 35.4167C728.621 33.2918 727.752 31.4721 725.782 29.9383C708.792 16.7261 692.645 43.1454 708.618 54.3347C711.658 56.4723 715.436 57.2952 719.091 56.621C724.468 55.6076 726.864 52.3997 729.598 48.2432C732.102 46.4848 737.686 47.1794 741.496 47.0322L742.151 48.2253C742.34 51.325 740.921 53.4412 739.164 56.0081C735.126 62.0325 728.769 66.1113 721.614 67.276C714.506 68.4106 705.904 67.3162 700.041 62.8455C694.791 58.8947 691.362 52.9835 690.546 46.4613C688.369 30.098 696.55 17.848 713.352 15.7227ZM752.639 54.4918C756.115 53.4307 759.8 55.3188 760.963 58.7562C762.132 62.1939 760.357 65.9378 756.959 67.2095C754.664 68.0673 752.083 67.6093 750.224 66.0136C748.369 64.4175 747.528 61.9354 748.029 59.5386C748.533 57.1409 750.299 55.2074 752.639 54.4918ZM624.47 16.2633C624.834 16.1711 625.267 16.2733 625.682 16.3177C626.758 18.1202 626.615 62.0427 626.173 67.0224C623.174 66.9144 620.07 66.9036 617.055 66.8532C615.861 66.8869 616.279 66.9416 615.163 66.5483C614.139 63.2559 614.826 22.6065 614.779 16.4264L624.47 16.2633ZM269.514 16.5502C286.859 16.3786 314.521 12.2589 308.261 40.3457C307.352 44.4248 303.539 47.411 299.994 49.1855C302.611 53.7672 308.393 62.3689 309.815 67.0162L302.599 66.5603L296.844 66.6417C294.432 63.4201 289.934 55.3274 287.752 51.5925C285.444 51.453 282.942 51.4242 280.614 51.351C280.656 56.4231 280.733 61.495 280.85 66.5662L268.88 66.5844C269.106 59.5915 268.343 19.6681 269.514 16.5502ZM164.456 16.52C164.835 19.7591 164.617 29.4015 164.619 33.0672C164.658 44.3778 164.628 55.6905 164.534 67.001C160.927 66.8353 157.007 66.9098 153.368 66.9135C152.745 63.9019 152.838 50.3864 152.924 46.4554C153.133 37.001 152.595 25.6223 153.287 16.3418C157.03 16.4502 160.323 16.3995 164.072 16.2935L164.456 16.52ZM358.858 27.175L342.569 27.338C343.153 33.7461 342.838 43.3186 342.801 49.9797C342.952 55.478 342.866 61.422 342.887 66.9528C338.549 66.5136 335.603 66.5303 331.212 66.5783L331.261 27.3108L315.523 27.2052C315.489 23.4712 315.39 20.1481 315.829 16.4173C328.683 16.8682 345.936 16.6222 358.836 16.3811L358.858 27.175ZM225.764 16.215C230.815 16.8648 252.818 16.6043 258.396 16.2693C258.882 19.9458 258.753 22.9651 258.565 26.6434C253.118 26.0908 243.121 26.284 237.39 26.2448C237.256 29.4915 237.329 33.1742 237.323 36.4589C242.967 35.9715 250.369 36.4688 256.612 36.0995C256.717 39.3536 256.597 42.9725 256.554 46.259C250.246 45.9964 243.656 46.0561 237.341 46.0929C237.231 49.5591 237.346 53.4001 237.381 56.8988C241.023 56.5799 255.201 56.4151 258.626 56.8839C260.383 58.9804 259.839 63.8726 259.81 66.8108C251.927 66.4116 233.432 66.0568 225.737 66.9469C225.409 61.3725 225.633 53.5615 225.634 47.8477C225.589 37.3038 225.633 26.7583 225.764 16.215ZM123.378 16.4234C123.909 28.0544 123.397 43.8134 123.327 55.6998C130.499 55.911 138.253 55.7836 145.469 55.7996C145.483 59.5732 145.526 63.1081 145.254 66.8835C137.098 66.0831 120.382 66.5112 111.711 66.5603C111.787 60.6077 111.304 18.751 112.326 16.5955C115.83 16.4385 119.832 16.4757 123.378 16.4234ZM361.767 16.1334C365.406 16.766 370.335 16.4985 374.129 16.4415C377.502 21.2101 382.836 31.79 385.662 37.2048C388.182 31.7031 392.434 22.9051 395.881 17.87C397.044 16.1666 405.822 16.4214 408.868 16.1878L409.195 16.4898C408.469 20.5858 401.274 32.0439 398.809 36.6794C390.053 50.5481 391.085 50.1105 391.509 66.805C389.005 66.7675 381.602 66.9781 379.998 65.7507C379.014 60.9825 380.415 53.453 379.042 49.1645C376.664 41.7676 362.392 22.7136 361.767 16.1334ZM681.254 16.1878C681.517 21.8115 681.854 63.7105 681.004 66.6265L679.659 66.7988C677.816 66.6024 672.504 66.9784 671.27 65.7779C663.03 57.7634 657.121 44.4446 649.184 36.3862C650.207 45.0077 649.824 57.632 649.861 66.7202C646.092 66.5427 642.032 66.6284 638.235 66.6389C638.05 52.55 638.285 38.4193 638.186 24.327C638.167 21.7055 638.146 19.0908 638.374 16.4777C641.018 16.4361 647.153 15.9067 648.819 17.9727C656.098 26.9789 663.305 37.1996 669.944 46.6425C669.622 36.9948 669.811 26.4176 669.786 16.7012C673.249 16.3873 677.457 16.4755 681.254 16.1878ZM192.824 16.4264C205.035 15.8405 218.388 18.5947 215.151 34.2783C215.027 34.8569 211.598 39.7426 211.041 40.6326C210.898 42.8754 215.656 44.9038 216.536 48.5392C217.647 53.1215 217.111 56.1157 215.009 60.218C208.155 68.9886 199.801 66.2337 189.977 66.5752C185.482 66.732 180.781 66.5582 176.274 66.5511C176.029 53.3222 176.229 31.417 176.328 17.3505C176.52 17.1051 176.711 16.859 176.902 16.6136C181.982 16.3787 187.59 16.6773 192.824 16.4264ZM187.875 45.4707L187.679 57.6719C193.732 57.816 198.298 58.5907 203.565 55.4672C210.381 44.8429 193.786 45.4008 187.875 45.4707ZM295.618 39.0891C302.652 26.764 288.771 26.1408 280.375 26.4501C280.385 31.3023 280.315 36.3803 280.439 41.2125C285.624 41.4689 291.315 42.2767 295.618 39.0891ZM187.73 36.6188C192.431 36.7162 198.594 37.4674 202.354 34.8127C207.581 24.5789 193.932 25.8994 187.878 25.7495L187.73 36.6188Z" fill="#093160"/>
<path d="M454.997 15.7126C469.205 16.0538 477.232 21.451 481.607 35.1742C477.717 35.4037 473.83 35.46 469.944 35.1591C464.632 26.5174 459.446 26.203 450.282 27.4064C448.618 28.7938 446.843 30.1939 445.458 31.8732C436.745 42.4161 444.71 58.7815 458.85 56.351C464.953 55.3014 467.257 51.9058 470.513 47.2304C471.7 46.914 480.116 47.0198 482.34 46.9313C477.94 59.2145 474.554 64.864 460.946 67.2296C424.164 73.6257 417.575 18.2705 454.997 15.7126ZM505.656 16.232C509.101 16.5773 512.545 16.4761 516.005 16.4495C518.603 20.9095 521.818 29.7428 523.822 34.7935L536.487 66.9426C532.34 66.7539 528.868 66.7947 524.709 66.8943C520.934 61.4189 523.315 58.0761 516.042 58.0031L500.987 57.9759C499.599 60.925 498.829 63.5583 497.19 66.8581C493.001 66.6825 489.844 66.6379 485.654 66.8099C488.279 58.0773 492.958 47.2072 496.315 38.5807C498.65 32.5795 502.772 21.627 505.656 16.232ZM543.274 16.3015C556.183 17.3803 572.929 13.6191 582.82 24.0904C591.939 33.7408 591.385 50.9999 582.02 60.1927C572.858 69.2162 555.444 66.2427 543.196 66.8792C542.649 59.645 542.961 48.443 542.958 40.9818C542.958 34.2644 542.631 22.6301 543.274 16.3015ZM571.389 30.046C566.547 26.818 560.184 27.1134 554.575 27.3068C554.634 36.9132 554.646 46.5212 554.6 56.1278C561.736 56.2314 567.28 56.9798 573.121 52.2648C576.006 48.2825 577.92 43.9615 577.137 38.9039C576.537 35.2784 574.453 32.0671 571.389 30.046ZM510.025 31.9455C508.649 37.4918 506.157 43.7351 504.129 49.1602C506.797 49.0309 508.807 48.9548 511.488 49.0426L517.678 49.1846C516.497 45.9717 512.518 32.7583 510.025 31.9455Z" fill="#FF0000"/>
</svg>
