<svg width="680" height="508" viewBox="0 0 680 508" fill="none" xmlns="http://www.w3.org/2000/svg">
<mask id="path-1-inside-1_5_405" fill="white">
<path d="M59.9973 16C59.9973 7.16345 67.1608 0 75.9973 0H663.997C672.834 0 679.997 7.16344 679.997 16V411.656C679.997 420.493 672.834 427.656 663.997 427.656H75.9973C67.1607 427.656 59.9973 420.493 59.9973 411.656V16Z"/>
</mask>
<path d="M59.9973 16C59.9973 7.16345 67.1608 0 75.9973 0H663.997C672.834 0 679.997 7.16344 679.997 16V411.656C679.997 420.493 672.834 427.656 663.997 427.656H75.9973C67.1607 427.656 59.9973 420.493 59.9973 411.656V16Z" fill="url(#paint0_linear_5_405)"/>
<path d="M75.9973 0V0.833333H663.997V0V-0.833333H75.9973V0ZM679.997 16H679.164V411.656H679.997H680.831V16H679.997ZM663.997 427.656V426.823H75.9973V427.656V428.49H663.997V427.656ZM59.9973 411.656H60.8306V16H59.9973H59.164V411.656H59.9973ZM75.9973 427.656V426.823C67.621 426.823 60.8306 420.033 60.8306 411.656H59.9973H59.164C59.164 420.953 66.7005 428.49 75.9973 428.49V427.656ZM679.997 411.656H679.164C679.164 420.033 672.374 426.823 663.997 426.823V427.656V428.49C673.294 428.49 680.831 420.953 680.831 411.656H679.997ZM663.997 0V0.833333C672.374 0.833333 679.164 7.62368 679.164 16H679.997H680.831C680.831 6.70321 673.294 -0.833333 663.997 -0.833333V0ZM75.9973 0V-0.833333C66.7005 -0.833333 59.164 6.70321 59.164 16H59.9973H60.8306C60.8306 7.62369 67.621 0.833333 75.9973 0.833333V0Z" fill="#E0E5EB" fill-opacity="0.6" mask="url(#path-1-inside-1_5_405)"/>
<path d="M369.997 305.495L534.997 241.328L369.997 177.161L204.997 241.328L369.997 305.495Z" fill="#F2F4F7" stroke="#E8ECF0" stroke-width="0.458333"/>
<path d="M369.997 204.661L443.331 232.161L369.997 259.661L296.664 232.161L369.997 204.661Z" fill="white" stroke="#D0D7DE" stroke-width="0.733333"/>
<path d="M296.664 232.161V248.661" stroke="#D0D7DE" stroke-width="1.83333"/>
<path d="M443.331 232.161V248.661" stroke="#D0D7DE" stroke-width="1.83333"/>
<path d="M369.997 259.661V276.161" stroke="#D0D7DE" stroke-width="1.83333"/>
<path d="M324.164 215.661L369.997 230.328L342.497 241.328L305.831 226.661L324.164 215.661Z" fill="#B8E2F2" fill-opacity="0.4" stroke="#7EC8E3" stroke-width="0.458333"/>
<path d="M369.997 211.995L415.831 226.662L392.914 235.828L347.081 221.162L369.997 211.995Z" fill="white" stroke="#E8ECF0" stroke-width="0.458333"/>
<path opacity="0.3" d="M360.831 219.328L397.497 230.328" stroke="#1B4F72" stroke-width="0.458333"/>
<path opacity="0.3" d="M365.414 222.995L392.914 232.162" stroke="#1B4F72" stroke-width="0.458333"/>
<path d="M408.497 122.161H331.497C329.979 122.161 328.747 123.393 328.747 124.911V174.411C328.747 175.93 329.979 177.161 331.497 177.161H408.497C410.016 177.161 411.247 175.93 411.247 174.411V124.911C411.247 123.393 410.016 122.161 408.497 122.161Z" fill="white" stroke="#D0D7DE" stroke-width="0.916667"/>
<path opacity="0.04" d="M406.206 125.828H333.789C333.03 125.828 332.414 126.444 332.414 127.203V172.12C332.414 172.879 333.03 173.495 333.789 173.495H406.206C406.965 173.495 407.581 172.879 407.581 172.12V127.203C407.581 126.444 406.965 125.828 406.206 125.828Z" fill="#0B2545"/>
<path opacity="0.3" d="M364.497 131.328H338.831C338.324 131.328 337.914 131.739 337.914 132.245V148.745C337.914 149.251 338.324 149.661 338.831 149.661H364.497C365.004 149.661 365.414 149.251 365.414 148.745V132.245C365.414 131.739 365.004 131.328 364.497 131.328Z" stroke="#1B4F72" stroke-width="0.641667"/>
<path opacity="0.3" d="M399.331 131.328H373.664C373.158 131.328 372.747 131.739 372.747 132.245V148.745C372.747 149.251 373.158 149.661 373.664 149.661H399.331C399.837 149.661 400.247 149.251 400.247 148.745V132.245C400.247 131.739 399.837 131.328 399.331 131.328Z" stroke="#7EC8E3" stroke-width="0.641667"/>
<path d="M337.914 156.995H394.747" stroke="#E8ECF0" stroke-width="0.641667"/>
<path d="M337.914 160.661H379.164" stroke="#E8ECF0" stroke-width="0.641667"/>
<path d="M337.914 164.328H365.414" stroke="#E8ECF0" stroke-width="0.641667"/>
<path d="M375.497 177.161H364.497C363.991 177.161 363.581 177.572 363.581 178.078V198.245C363.581 198.751 363.991 199.161 364.497 199.161H375.497C376.003 199.161 376.414 198.751 376.414 198.245V178.078C376.414 177.572 376.003 177.161 375.497 177.161Z" fill="#E8ECF0"/>
<path opacity="0.85" d="M278.331 258.516C281.95 258.516 284.885 255.581 284.885 251.961C284.885 248.342 281.95 245.407 278.331 245.407C274.711 245.407 271.776 248.342 271.776 251.961C271.776 255.581 274.711 258.516 278.331 258.516Z" fill="#0B2545"/>
<path opacity="0.7" d="M280.714 259.111H275.947C273.973 259.111 272.372 260.712 272.372 262.686V274.603C272.372 276.578 273.973 278.178 275.947 278.178H280.714C282.688 278.178 284.289 276.578 284.289 274.603V262.686C284.289 260.712 282.688 259.111 280.714 259.111Z" fill="#0B2545"/>
<path opacity="0.5" d="M275.947 278.178H275.351C274.364 278.178 273.564 278.978 273.564 279.966V290.691C273.564 291.678 274.364 292.478 275.351 292.478H275.947C276.935 292.478 277.735 291.678 277.735 290.691V279.966C277.735 278.978 276.935 278.178 275.947 278.178Z" fill="#0B2545"/>
<path opacity="0.5" d="M281.31 278.178H280.714C279.727 278.178 278.926 278.978 278.926 279.966V290.691C278.926 291.678 279.727 292.478 280.714 292.478H281.31C282.297 292.478 283.097 291.678 283.097 290.691V279.966C283.097 278.978 282.297 278.178 281.31 278.178Z" fill="#0B2545"/>
<path opacity="0.85" d="M342.497 237.432C346.117 237.432 349.051 234.498 349.051 230.878C349.051 227.258 346.117 224.324 342.497 224.324C338.878 224.324 335.943 227.258 335.943 230.878C335.943 234.498 338.878 237.432 342.497 237.432Z" fill="#1B4F72"/>
<path opacity="0.7" d="M344.881 238.028H340.114C338.14 238.028 336.539 239.629 336.539 241.603V253.52C336.539 255.494 338.14 257.095 340.114 257.095H344.881C346.855 257.095 348.456 255.494 348.456 253.52V241.603C348.456 239.629 346.855 238.028 344.881 238.028Z" fill="#1B4F72"/>
<path opacity="0.5" d="M340.114 257.095H339.518C338.531 257.095 337.731 257.895 337.731 258.882V269.607C337.731 270.595 338.531 271.395 339.518 271.395H340.114C341.101 271.395 341.902 270.595 341.902 269.607V258.882C341.902 257.895 341.101 257.095 340.114 257.095Z" fill="#1B4F72"/>
<path opacity="0.5" d="M345.476 257.095H344.881C343.893 257.095 343.093 257.895 343.093 258.882V269.607C343.093 270.595 343.893 271.395 344.881 271.395H345.476C346.464 271.395 347.264 270.595 347.264 269.607V258.882C347.264 257.895 346.464 257.095 345.476 257.095Z" fill="#1B4F72"/>
<path opacity="0.85" d="M434.164 258.745C437.505 258.745 440.214 256.036 440.214 252.695C440.214 249.353 437.505 246.645 434.164 246.645C430.823 246.645 428.114 249.353 428.114 252.695C428.114 256.036 430.823 258.745 434.164 258.745Z" fill="#0B2545"/>
<path opacity="0.7" d="M436.364 259.295H431.964C430.142 259.295 428.664 260.772 428.664 262.595V273.595C428.664 275.417 430.142 276.895 431.964 276.895H436.364C438.187 276.895 439.664 275.417 439.664 273.595V262.595C439.664 260.772 438.187 259.295 436.364 259.295Z" fill="#0B2545"/>
<path opacity="0.5" d="M431.964 276.895H431.414C430.503 276.895 429.764 277.634 429.764 278.545V288.445C429.764 289.356 430.503 290.095 431.414 290.095H431.964C432.875 290.095 433.614 289.356 433.614 288.445V278.545C433.614 277.634 432.875 276.895 431.964 276.895Z" fill="#0B2545"/>
<path opacity="0.5" d="M436.914 276.895H436.364C435.453 276.895 434.714 277.634 434.714 278.545V288.445C434.714 289.356 435.453 290.095 436.364 290.095H436.914C437.825 290.095 438.564 289.356 438.564 288.445V278.545C438.564 277.634 437.825 276.895 436.914 276.895Z" fill="#0B2545"/>
<path opacity="0.85" d="M470.831 253.474C473.894 253.474 476.377 250.991 476.377 247.928C476.377 244.865 473.894 242.382 470.831 242.382C467.768 242.382 465.285 244.865 465.285 247.928C465.285 250.991 467.768 253.474 470.831 253.474Z" fill="#1B4F72"/>
<path opacity="0.7" d="M472.847 253.978H468.814C467.143 253.978 465.789 255.332 465.789 257.003V267.086C465.789 268.757 467.143 270.111 468.814 270.111H472.847C474.518 270.111 475.872 268.757 475.872 267.086V257.003C475.872 255.332 474.518 253.978 472.847 253.978Z" fill="#1B4F72"/>
<path opacity="0.5" d="M468.814 270.111H468.31C467.475 270.111 466.797 270.789 466.797 271.624V280.699C466.797 281.534 467.475 282.211 468.31 282.211H468.814C469.649 282.211 470.327 281.534 470.327 280.699V271.624C470.327 270.789 469.649 270.111 468.814 270.111Z" fill="#1B4F72"/>
<path opacity="0.5" d="M473.352 270.111H472.847C472.012 270.111 471.335 270.789 471.335 271.624V280.699C471.335 281.534 472.012 282.211 472.847 282.211H473.352C474.187 282.211 474.864 281.534 474.864 280.699V271.624C474.864 270.789 474.187 270.111 473.352 270.111Z" fill="#1B4F72"/>
<path opacity="0.3" d="M351.664 241.328L369.997 204.661" stroke="#0B2545" stroke-width="0.916667" stroke-linecap="round"/>
<g opacity="0.25">
<path d="M212.331 185.411C212.331 180.855 208.637 177.161 204.081 177.161C199.524 177.161 195.831 180.855 195.831 185.411V223.911C195.831 228.468 199.524 232.161 204.081 232.161C208.637 232.161 212.331 228.468 212.331 223.911V185.411Z" fill="#1B4F72"/>
<path d="M204.081 182.661C208.637 182.661 212.331 181.02 212.331 178.995C212.331 176.97 208.637 175.328 204.081 175.328C199.524 175.328 195.831 176.97 195.831 178.995C195.831 181.02 199.524 182.661 204.081 182.661Z" fill="#D0D7DE"/>
<path d="M206.831 167.995H201.331V180.828H206.831V167.995Z" fill="#1B4F72"/>
</g>
<g opacity="0.2">
<path d="M526.747 177.161H510.247C508.729 177.161 507.497 178.393 507.497 179.911V220.245C507.497 221.763 508.729 222.995 510.247 222.995H526.747C528.266 222.995 529.497 221.763 529.497 220.245V179.911C529.497 178.393 528.266 177.161 526.747 177.161Z" fill="#1B4F72"/>
<path d="M523.997 167.995H512.997C511.985 167.995 511.164 168.816 511.164 169.828V178.995C511.164 180.007 511.985 180.828 512.997 180.828H523.997C525.01 180.828 525.831 180.007 525.831 178.995V169.828C525.831 168.816 525.01 167.995 523.997 167.995Z" fill="#D0D7DE"/>
<path d="M521.247 162.495H515.747C515.241 162.495 514.831 162.905 514.831 163.411V170.745C514.831 171.251 515.241 171.661 515.747 171.661H521.247C521.753 171.661 522.164 171.251 522.164 170.745V163.411C522.164 162.905 521.753 162.495 521.247 162.495Z" fill="#1B4F72"/>
</g>
<g filter="url(#filter0_d_5_405)">
<mask id="path-43-inside-2_5_405" fill="white">
<path d="M36 312.761C36 307.238 40.4772 302.76 46 302.76H207.354C212.877 302.76 217.354 307.238 217.354 312.76V445.651C217.354 451.174 212.877 455.651 207.354 455.651H46C40.4772 455.651 36 451.174 36 445.651V312.761Z"/>
</mask>
<path d="M36 312.761C36 307.238 40.4772 302.76 46 302.76H207.354C212.877 302.76 217.354 307.238 217.354 312.76V445.651C217.354 451.174 212.877 455.651 207.354 455.651H46C40.4772 455.651 36 451.174 36 445.651V312.761Z" fill="white" shape-rendering="crispEdges"/>
<path d="M46 302.76V303.594H207.354V302.76V301.927H46V302.76ZM217.354 312.76H216.521V445.651H217.354H218.187V312.76H217.354ZM207.354 455.651V454.818H46V455.651V456.484H207.354V455.651ZM36 445.651H36.8333V312.761H36H35.1667V445.651H36ZM46 455.651V454.818C40.9374 454.818 36.8333 450.714 36.8333 445.651H36H35.1667C35.1667 451.634 40.0169 456.484 46 456.484V455.651ZM217.354 445.651H216.521C216.521 450.714 212.417 454.818 207.354 454.818V455.651V456.484C213.337 456.484 218.187 451.634 218.187 445.651H217.354ZM207.354 302.76V303.594C212.417 303.594 216.521 307.698 216.521 312.76H217.354H218.187C218.187 306.777 213.337 301.927 207.354 301.927V302.76ZM46 302.76V301.927C40.0169 301.927 35.1667 306.777 35.1667 312.761H36H36.8333C36.8333 307.698 40.9374 303.594 46 303.594V302.76Z" fill="#ECEEF1" mask="url(#path-43-inside-2_5_405)"/>
<path d="M73.4081 366.258V341.09L67.4681 344.742V338.142L73.4081 334.578H79.5241V366.258H73.4081ZM95.5446 366.918C93.9459 366.918 92.4426 366.588 91.0346 365.928C89.6413 365.268 88.4386 364.351 87.4266 363.178C86.4146 362.004 85.6886 360.64 85.2486 359.086L91.0126 357.546C91.2033 358.294 91.5406 358.939 92.0246 359.482C92.5233 360.024 93.0953 360.45 93.7406 360.758C94.4006 361.051 95.0753 361.198 95.7646 361.198C96.6739 361.198 97.5026 360.978 98.2506 360.538C99.0133 360.098 99.6146 359.504 100.055 358.756C100.509 358.008 100.737 357.179 100.737 356.27C100.737 355.36 100.509 354.532 100.055 353.784C99.6146 353.036 99.0133 352.442 98.2506 352.002C97.5026 351.562 96.6739 351.342 95.7646 351.342C94.6499 351.342 93.7406 351.532 93.0366 351.914C92.3326 352.28 91.8046 352.632 91.4526 352.97L86.3926 351.43L87.3606 334.578H104.653V340.166H90.6606L92.7726 338.186L92.1126 349.054L91.1006 347.822C91.8926 347.176 92.7946 346.707 93.8066 346.414C94.8186 346.12 95.7646 345.974 96.6446 345.974C98.6393 345.974 100.392 346.421 101.903 347.316C103.428 348.196 104.616 349.413 105.467 350.968C106.332 352.508 106.765 354.275 106.765 356.27C106.765 358.264 106.244 360.068 105.203 361.682C104.161 363.28 102.79 364.556 101.089 365.51C99.3873 366.448 97.5393 366.918 95.5446 366.918ZM117.451 360.318V352.706H109.839V348.086H117.451V340.518H122.071V348.086H129.639V352.706H122.071V360.318H117.451Z" fill="#0B2545"/>
<rect width="23.9974" height="0.989583" transform="translate(64.8281 383.581)" fill="#1B4F72" fill-opacity="0.15"/>
<path d="M65.1255 398.313H66.6836L69.0584 402.446H69.1561L71.5309 398.313H73.089L69.7908 403.835V407.404H68.4237V403.835L65.1255 398.313ZM76.093 407.541C75.4212 407.541 74.8427 407.398 74.3574 407.111C73.875 406.821 73.5021 406.414 73.2388 405.89C72.9784 405.363 72.8481 404.746 72.8481 404.039C72.8481 403.341 72.9784 402.725 73.2388 402.193C73.5021 401.66 73.8691 401.244 74.3396 400.945C74.8131 400.646 75.3665 400.497 75.9998 400.497C76.3845 400.497 76.7574 400.56 77.1184 400.688C77.4794 400.815 77.8035 401.015 78.0905 401.287C78.3776 401.559 78.6039 401.913 78.7697 402.348C78.9354 402.78 79.0182 403.305 79.0182 403.924V404.394H73.5983V403.4H77.7176C77.7176 403.051 77.6466 402.741 77.5046 402.472C77.3625 402.2 77.1628 401.985 76.9053 401.829C76.6508 401.672 76.3519 401.593 76.0087 401.593C75.6358 401.593 75.3103 401.685 75.0321 401.868C74.7569 402.049 74.5438 402.286 74.3929 402.579C74.2449 402.869 74.1709 403.184 74.1709 403.524V404.301C74.1709 404.757 74.2508 405.144 74.4106 405.464C74.5734 405.784 74.7998 406.028 75.0898 406.196C75.3798 406.362 75.7186 406.445 76.1063 406.445C76.3579 406.445 76.5872 406.409 76.7943 406.338C77.0015 406.264 77.1805 406.155 77.3315 406.01C77.4824 405.865 77.5978 405.686 77.6777 405.473L78.9339 405.699C78.8333 406.069 78.6528 406.393 78.3924 406.671C78.1349 406.947 77.8109 407.161 77.4202 407.315C77.0326 407.466 76.5902 407.541 76.093 407.541ZM82.4751 407.555C82.043 407.555 81.6524 407.475 81.3032 407.315C80.954 407.152 80.6773 406.917 80.4731 406.609C80.2719 406.301 80.1713 405.924 80.1713 405.477C80.1713 405.093 80.2452 404.776 80.3932 404.527C80.5412 404.279 80.7409 404.082 80.9925 403.937C81.244 403.792 81.5251 403.683 81.8358 403.609C82.1466 403.535 82.4632 403.478 82.7858 403.44C83.1942 403.393 83.5256 403.354 83.7801 403.324C84.0346 403.292 84.2195 403.24 84.335 403.169C84.4504 403.098 84.5081 402.983 84.5081 402.823V402.792C84.5081 402.404 84.3986 402.104 84.1796 401.891C83.9636 401.678 83.641 401.571 83.2119 401.571C82.7651 401.571 82.4129 401.67 82.1555 401.868C81.901 402.064 81.7249 402.281 81.6272 402.521L80.3799 402.237C80.5278 401.823 80.7439 401.488 81.028 401.234C81.315 400.976 81.645 400.79 82.0178 400.674C82.3907 400.556 82.7828 400.497 83.1942 400.497C83.4664 400.497 83.7549 400.529 84.0597 400.595C84.3675 400.657 84.6546 400.772 84.9209 400.941C85.1902 401.109 85.4107 401.351 85.5823 401.664C85.7539 401.975 85.8398 402.379 85.8398 402.876V407.404H84.5436V406.472H84.4903C84.4045 406.643 84.2758 406.812 84.1041 406.978C83.9325 407.143 83.712 407.281 83.4427 407.39C83.1734 407.5 82.8509 407.555 82.4751 407.555ZM82.7636 406.489C83.1305 406.489 83.4442 406.417 83.7046 406.272C83.968 406.127 84.1678 405.937 84.3039 405.704C84.443 405.467 84.5125 405.214 84.5125 404.945V404.066C84.4652 404.113 84.3734 404.157 84.2373 404.199C84.1041 404.237 83.9517 404.271 83.7801 404.301C83.6085 404.328 83.4413 404.353 83.2785 404.376C83.1157 404.397 82.9796 404.415 82.8701 404.43C82.6127 404.462 82.3774 404.517 82.1643 404.594C81.9542 404.671 81.7855 404.782 81.6583 404.927C81.534 405.069 81.4719 405.258 81.4719 405.495C81.4719 405.824 81.5932 406.072 81.8358 406.241C82.0785 406.407 82.3878 406.489 82.7636 406.489ZM87.6076 407.404V400.586H88.8904V401.669H88.9614C89.0857 401.302 89.3047 401.013 89.6184 400.803C89.935 400.59 90.2931 400.484 90.6926 400.484C90.7755 400.484 90.8731 400.486 90.9856 400.492C91.101 400.498 91.1912 400.506 91.2563 400.515V401.784C91.2031 401.769 91.1084 401.753 90.9723 401.735C90.8361 401.715 90.7 401.704 90.5639 401.704C90.2502 401.704 89.9705 401.771 89.7249 401.904C89.4823 402.034 89.2899 402.216 89.1479 402.45C89.0058 402.681 88.9348 402.944 88.9348 403.24V407.404H87.6076ZM97.5141 402.25L96.3112 402.463C96.2609 402.309 96.181 402.163 96.0715 402.024C95.9649 401.885 95.8199 401.771 95.6365 401.682C95.453 401.593 95.2236 401.549 94.9484 401.549C94.5726 401.549 94.2589 401.633 94.0074 401.802C93.7558 401.968 93.6301 402.182 93.6301 402.446C93.6301 402.673 93.7144 402.857 93.8831 402.996C94.0518 403.135 94.324 403.249 94.6998 403.338L95.7829 403.586C96.4103 403.731 96.8779 403.955 97.1856 404.257C97.4934 404.558 97.6473 404.951 97.6473 405.433C97.6473 405.841 97.5289 406.205 97.2922 406.525C97.0584 406.842 96.7314 407.09 96.3112 407.271C95.8939 407.451 95.4101 407.541 94.8596 407.541C94.0961 407.541 93.4732 407.379 92.9909 407.053C92.5085 406.725 92.2126 406.259 92.1031 405.655L93.3859 405.46C93.4658 405.794 93.6301 406.047 93.8786 406.219C94.1272 406.387 94.4513 406.472 94.8508 406.472C95.2858 406.472 95.6335 406.381 95.8939 406.201C96.1543 406.017 96.2845 405.794 96.2845 405.531C96.2845 405.318 96.2046 405.138 96.0448 404.993C95.888 404.848 95.6468 404.739 95.3213 404.665L94.1672 404.412C93.5309 404.267 93.0604 404.036 92.7556 403.72C92.4537 403.403 92.3028 403.002 92.3028 402.517C92.3028 402.114 92.4153 401.762 92.6402 401.46C92.8651 401.158 93.1758 400.923 93.5724 400.754C93.9689 400.583 94.4231 400.497 94.9351 400.497C95.672 400.497 96.252 400.657 96.6752 400.976C97.0983 401.293 97.378 401.718 97.5141 402.25ZM107.524 402.25L106.321 402.463C106.271 402.309 106.191 402.163 106.081 402.024C105.975 401.885 105.83 401.771 105.646 401.682C105.463 401.593 105.233 401.549 104.958 401.549C104.582 401.549 104.269 401.633 104.017 401.802C103.766 401.968 103.64 402.182 103.64 402.446C103.64 402.673 103.724 402.857 103.893 402.996C104.062 403.135 104.334 403.249 104.71 403.338L105.793 403.586C106.42 403.731 106.888 403.955 107.195 404.257C107.503 404.558 107.657 404.951 107.657 405.433C107.657 405.841 107.539 406.205 107.302 406.525C107.068 406.842 106.741 407.09 106.321 407.271C105.904 407.451 105.42 407.541 104.869 407.541C104.106 407.541 103.483 407.379 103.001 407.053C102.518 406.725 102.222 406.259 102.113 405.655L103.396 405.46C103.476 405.794 103.64 406.047 103.888 406.219C104.137 406.387 104.461 406.472 104.861 406.472C105.296 406.472 105.643 406.381 105.904 406.201C106.164 406.017 106.294 405.794 106.294 405.531C106.294 405.318 106.214 405.138 106.055 404.993C105.898 404.848 105.657 404.739 105.331 404.665L104.177 404.412C103.541 404.267 103.07 404.036 102.765 403.72C102.464 403.403 102.313 403.002 102.313 402.517C102.313 402.114 102.425 401.762 102.65 401.46C102.875 401.158 103.186 400.923 103.582 400.754C103.979 400.583 104.433 400.497 104.945 400.497C105.682 400.497 106.262 400.657 106.685 400.976C107.108 401.293 107.388 401.718 107.524 402.25ZM113.435 404.576V400.586H114.767V407.404H113.462V406.223H113.391C113.234 406.587 112.983 406.89 112.636 407.133C112.293 407.373 111.866 407.493 111.354 407.493C110.916 407.493 110.528 407.396 110.191 407.204C109.856 407.009 109.593 406.72 109.4 406.338C109.211 405.957 109.116 405.485 109.116 404.922V400.586H110.444V404.763C110.444 405.227 110.572 405.597 110.83 405.872C111.087 406.148 111.422 406.285 111.833 406.285C112.082 406.285 112.329 406.223 112.574 406.099C112.823 405.974 113.029 405.787 113.191 405.535C113.357 405.283 113.438 404.964 113.435 404.576ZM116.55 409.961V400.586H117.847V401.691H117.958C118.035 401.549 118.145 401.385 118.29 401.198C118.435 401.012 118.637 400.849 118.894 400.71C119.152 400.568 119.492 400.497 119.915 400.497C120.466 400.497 120.957 400.636 121.389 400.914C121.821 401.192 122.16 401.593 122.405 402.117C122.654 402.641 122.778 403.271 122.778 404.008C122.778 404.745 122.655 405.377 122.41 405.903C122.164 406.427 121.827 406.831 121.398 407.115C120.969 407.396 120.479 407.537 119.928 407.537C119.514 407.537 119.175 407.467 118.912 407.328C118.652 407.189 118.447 407.027 118.299 406.84C118.151 406.654 118.037 406.488 117.958 406.343H117.878V409.961H116.55ZM117.851 403.995C117.851 404.474 117.921 404.894 118.06 405.255C118.199 405.616 118.4 405.899 118.663 406.103C118.927 406.304 119.249 406.405 119.631 406.405C120.028 406.405 120.359 406.3 120.625 406.09C120.892 405.877 121.093 405.588 121.229 405.224C121.368 404.86 121.438 404.45 121.438 403.995C121.438 403.545 121.37 403.141 121.233 402.783C121.1 402.425 120.899 402.142 120.63 401.935C120.363 401.728 120.031 401.624 119.631 401.624C119.246 401.624 118.921 401.723 118.654 401.922C118.391 402.12 118.191 402.397 118.055 402.752C117.919 403.107 117.851 403.521 117.851 403.995ZM124.265 409.961V400.586H125.561V401.691H125.672C125.749 401.549 125.86 401.385 126.005 401.198C126.15 401.012 126.352 400.849 126.609 400.71C126.866 400.568 127.207 400.497 127.63 400.497C128.18 400.497 128.672 400.636 129.104 400.914C129.536 401.192 129.875 401.593 130.12 402.117C130.369 402.641 130.493 403.271 130.493 404.008C130.493 404.745 130.37 405.377 130.125 405.903C129.879 406.427 129.542 406.831 129.113 407.115C128.683 407.396 128.194 407.537 127.643 407.537C127.229 407.537 126.89 407.467 126.627 407.328C126.366 407.189 126.162 407.027 126.014 406.84C125.866 406.654 125.752 406.488 125.672 406.343H125.593V409.961H124.265ZM125.566 403.995C125.566 404.474 125.635 404.894 125.775 405.255C125.914 405.616 126.115 405.899 126.378 406.103C126.642 406.304 126.964 406.405 127.346 406.405C127.742 406.405 128.074 406.3 128.34 406.09C128.607 405.877 128.808 405.588 128.944 405.224C129.083 404.86 129.153 404.45 129.153 403.995C129.153 403.545 129.084 403.141 128.948 402.783C128.815 402.425 128.614 402.142 128.345 401.935C128.078 401.728 127.745 401.624 127.346 401.624C126.961 401.624 126.636 401.723 126.369 401.922C126.106 402.12 125.906 402.397 125.77 402.752C125.634 403.107 125.566 403.521 125.566 403.995ZM134.852 407.541C134.213 407.541 133.655 407.395 133.179 407.102C132.702 406.809 132.332 406.399 132.069 405.872C131.806 405.346 131.674 404.73 131.674 404.026C131.674 403.319 131.806 402.7 132.069 402.17C132.332 401.641 132.702 401.229 133.179 400.936C133.655 400.643 134.213 400.497 134.852 400.497C135.491 400.497 136.049 400.643 136.526 400.936C137.002 401.229 137.372 401.641 137.635 402.17C137.899 402.7 138.03 403.319 138.03 404.026C138.03 404.73 137.899 405.346 137.635 405.872C137.372 406.399 137.002 406.809 136.526 407.102C136.049 407.395 135.491 407.541 134.852 407.541ZM134.857 406.427C135.271 406.427 135.614 406.318 135.886 406.099C136.159 405.88 136.36 405.588 136.49 405.224C136.623 404.86 136.69 404.459 136.69 404.021C136.69 403.586 136.623 403.187 136.49 402.823C136.36 402.456 136.159 402.161 135.886 401.939C135.614 401.718 135.271 401.607 134.857 401.607C134.439 401.607 134.093 401.718 133.818 401.939C133.546 402.161 133.343 402.456 133.21 402.823C133.079 403.187 133.014 403.586 133.014 404.021C133.014 404.459 133.079 404.86 133.21 405.224C133.343 405.588 133.546 405.88 133.818 406.099C134.093 406.318 134.439 406.427 134.857 406.427ZM139.512 407.404V400.586H140.795V401.669H140.866C140.99 401.302 141.209 401.013 141.523 400.803C141.839 400.59 142.197 400.484 142.597 400.484C142.68 400.484 142.777 400.486 142.89 400.492C143.005 400.498 143.096 400.506 143.161 400.515V401.784C143.107 401.769 143.013 401.753 142.877 401.735C142.74 401.715 142.604 401.704 142.468 401.704C142.154 401.704 141.875 401.771 141.629 401.904C141.387 402.034 141.194 402.216 141.052 402.45C140.91 402.681 140.839 402.944 140.839 403.24V407.404H139.512ZM147.895 400.586V401.651H144.17V400.586H147.895ZM145.169 398.952H146.496V405.402C146.496 405.659 146.535 405.853 146.612 405.983C146.689 406.111 146.788 406.198 146.909 406.245C147.034 406.29 147.168 406.312 147.313 406.312C147.42 406.312 147.513 406.304 147.593 406.29C147.673 406.275 147.735 406.263 147.779 406.254L148.019 407.351C147.942 407.38 147.833 407.41 147.691 407.439C147.549 407.472 147.371 407.49 147.158 407.493C146.809 407.499 146.483 407.436 146.181 407.306C145.879 407.176 145.635 406.975 145.449 406.702C145.262 406.43 145.169 406.088 145.169 405.677V398.952ZM149.363 407.404V400.586H150.69V407.404H149.363ZM150.033 399.534C149.802 399.534 149.604 399.457 149.438 399.303C149.276 399.146 149.194 398.96 149.194 398.743C149.194 398.524 149.276 398.338 149.438 398.184C149.604 398.027 149.802 397.949 150.033 397.949C150.264 397.949 150.461 398.027 150.624 398.184C150.789 398.338 150.872 398.524 150.872 398.743C150.872 398.96 150.789 399.146 150.624 399.303C150.461 399.457 150.264 399.534 150.033 399.534ZM153.803 403.356V407.404H152.476V400.586H153.75V401.695H153.834C153.991 401.334 154.236 401.044 154.571 400.825C154.908 400.606 155.333 400.497 155.845 400.497C156.309 400.497 156.716 400.595 157.066 400.79C157.415 400.982 157.686 401.269 157.878 401.651C158.07 402.033 158.166 402.505 158.166 403.067V407.404H156.839V403.227C156.839 402.733 156.71 402.346 156.453 402.068C156.196 401.787 155.842 401.647 155.392 401.647C155.084 401.647 154.811 401.713 154.571 401.846C154.334 401.979 154.146 402.175 154.007 402.432C153.871 402.687 153.803 402.994 153.803 403.356ZM162.805 410.103C162.264 410.103 161.797 410.032 161.407 409.89C161.019 409.748 160.703 409.56 160.457 409.326C160.211 409.092 160.028 408.836 159.906 408.558L161.047 408.087C161.127 408.218 161.234 408.355 161.367 408.5C161.503 408.648 161.686 408.774 161.917 408.878C162.151 408.981 162.451 409.033 162.818 409.033C163.321 409.033 163.737 408.91 164.066 408.664C164.394 408.422 164.558 408.034 164.558 407.501V406.161H164.474C164.394 406.306 164.279 406.467 164.128 406.645C163.98 406.822 163.776 406.976 163.515 407.106C163.255 407.237 162.916 407.302 162.499 407.302C161.96 407.302 161.475 407.176 161.043 406.924C160.614 406.67 160.273 406.296 160.022 405.801C159.773 405.304 159.649 404.693 159.649 403.968C159.649 403.243 159.772 402.622 160.017 402.104C160.266 401.586 160.606 401.189 161.038 400.914C161.47 400.636 161.96 400.497 162.508 400.497C162.931 400.497 163.273 400.568 163.533 400.71C163.793 400.849 163.996 401.012 164.141 401.198C164.289 401.385 164.403 401.549 164.483 401.691H164.581V400.586H165.881V407.555C165.881 408.141 165.745 408.622 165.473 408.997C165.201 409.373 164.832 409.651 164.368 409.832C163.906 410.012 163.385 410.103 162.805 410.103ZM162.792 406.201C163.174 406.201 163.496 406.112 163.759 405.935C164.026 405.754 164.227 405.497 164.363 405.162C164.502 404.825 164.572 404.421 164.572 403.95C164.572 403.492 164.504 403.088 164.368 402.739C164.231 402.389 164.032 402.117 163.768 401.922C163.505 401.723 163.179 401.624 162.792 401.624C162.392 401.624 162.059 401.728 161.793 401.935C161.527 402.139 161.325 402.417 161.189 402.77C161.056 403.122 160.99 403.515 160.99 403.95C160.99 404.397 161.058 404.789 161.194 405.127C161.33 405.464 161.531 405.727 161.797 405.917C162.067 406.106 162.398 406.201 162.792 406.201Z" fill="#7A8694"/>
<path d="M65.7203 425.529V418.711H67.0476V425.529H65.7203ZM66.3906 417.659C66.1598 417.659 65.9615 417.582 65.7958 417.428C65.633 417.271 65.5517 417.085 65.5517 416.868C65.5517 416.649 65.633 416.463 65.7958 416.309C65.9615 416.152 66.1598 416.074 66.3906 416.074C66.6214 416.074 66.8182 416.152 66.981 416.309C67.1467 416.463 67.2296 416.649 67.2296 416.868C67.2296 417.085 67.1467 417.271 66.981 417.428C66.8182 417.582 66.6214 417.659 66.3906 417.659ZM70.1604 421.481V425.529H68.8331V418.711H70.1071V419.82H70.1915C70.3483 419.459 70.5939 419.169 70.9283 418.95C71.2657 418.731 71.6903 418.622 72.2023 418.622C72.6669 418.622 73.0738 418.72 73.423 418.915C73.7722 419.107 74.043 419.394 74.2353 419.776C74.4277 420.158 74.5238 420.63 74.5238 421.192V425.529H73.1966V421.352C73.1966 420.858 73.0679 420.471 72.8104 420.193C72.553 419.912 72.1993 419.772 71.7495 419.772C71.4417 419.772 71.168 419.838 70.9283 419.971C70.6916 420.104 70.5037 420.3 70.3646 420.557C70.2284 420.812 70.1604 421.119 70.1604 421.481ZM78.8562 425.662C78.3058 425.662 77.8146 425.521 77.3825 425.24C76.9534 424.956 76.616 424.552 76.3704 424.028C76.1278 423.502 76.0064 422.87 76.0064 422.133C76.0064 421.396 76.1292 420.766 76.3749 420.242C76.6234 419.718 76.9638 419.317 77.3958 419.039C77.8279 418.761 78.3176 418.622 78.8651 418.622C79.2883 418.622 79.6286 418.693 79.8861 418.835C80.1465 418.974 80.3477 419.137 80.4897 419.323C80.6348 419.51 80.7472 419.674 80.8271 419.816H80.907V416.438H82.2342V425.529H80.9381V424.468H80.8271C80.7472 424.613 80.6318 424.779 80.4809 424.965C80.3329 425.152 80.1287 425.314 79.8683 425.453C79.6079 425.592 79.2705 425.662 78.8562 425.662ZM79.1492 424.53C79.5309 424.53 79.8535 424.429 80.1169 424.228C80.3832 424.024 80.5844 423.741 80.7206 423.38C80.8597 423.019 80.9292 422.599 80.9292 422.12C80.9292 421.646 80.8611 421.232 80.725 420.877C80.5889 420.522 80.3891 420.245 80.1258 420.047C79.8624 419.848 79.5369 419.749 79.1492 419.749C78.7497 419.749 78.4168 419.853 78.1504 420.06C77.8841 420.267 77.6829 420.55 77.5467 420.908C77.4136 421.266 77.347 421.67 77.347 422.12C77.347 422.575 77.4151 422.985 77.5512 423.349C77.6873 423.713 77.8885 424.002 78.1549 424.215C78.4242 424.425 78.7556 424.53 79.1492 424.53ZM88.4476 422.701V418.711H89.7793V425.529H88.4743V424.348H88.4032C88.2464 424.712 87.9949 425.015 87.6486 425.258C87.3053 425.498 86.8777 425.618 86.3658 425.618C85.9278 425.618 85.5401 425.521 85.2028 425.329C84.8684 425.134 84.605 424.845 84.4126 424.463C84.2232 424.082 84.1286 423.61 84.1286 423.047V418.711H85.4558V422.888C85.4558 423.352 85.5845 423.722 85.842 423.997C86.0994 424.273 86.4338 424.41 86.8452 424.41C87.0938 424.41 87.3408 424.348 87.5865 424.224C87.835 424.099 88.0407 423.912 88.2035 423.66C88.3692 423.408 88.4506 423.089 88.4476 422.701ZM96.6718 420.375L95.4689 420.588C95.4186 420.434 95.3387 420.288 95.2292 420.149C95.1226 420.01 94.9776 419.896 94.7942 419.807C94.6107 419.718 94.3813 419.674 94.1061 419.674C93.7303 419.674 93.4166 419.758 93.1651 419.927C92.9135 420.093 92.7878 420.307 92.7878 420.571C92.7878 420.798 92.8721 420.982 93.0408 421.121C93.2095 421.26 93.4817 421.374 93.8576 421.463L94.9407 421.711C95.568 421.856 96.0356 422.08 96.3434 422.382C96.6511 422.683 96.805 423.076 96.805 423.558C96.805 423.966 96.6866 424.33 96.4499 424.65C96.2161 424.967 95.8891 425.215 95.4689 425.396C95.0516 425.576 94.5678 425.666 94.0174 425.666C93.2539 425.666 92.6309 425.504 92.1486 425.178C91.6662 424.85 91.3703 424.384 91.2608 423.78L92.5436 423.585C92.6235 423.919 92.7878 424.172 93.0364 424.344C93.2849 424.512 93.609 424.597 94.0085 424.597C94.4435 424.597 94.7912 424.506 95.0516 424.326C95.312 424.142 95.4422 423.919 95.4422 423.656C95.4422 423.443 95.3623 423.263 95.2025 423.118C95.0457 422.973 94.8045 422.864 94.479 422.79L93.3249 422.537C92.6886 422.392 92.2181 422.161 91.9133 421.845C91.6115 421.528 91.4605 421.127 91.4605 420.642C91.4605 420.239 91.573 419.887 91.7979 419.585C92.0228 419.283 92.3335 419.048 92.7301 418.879C93.1266 418.708 93.5809 418.622 94.0928 418.622C94.8297 418.622 95.4097 418.782 95.8329 419.101C96.2561 419.418 96.5357 419.843 96.6718 420.375ZM101.447 418.711V419.776H97.7227V418.711H101.447ZM98.7215 417.077H100.049V423.527C100.049 423.784 100.087 423.978 100.164 424.108C100.241 424.236 100.34 424.323 100.462 424.37C100.586 424.415 100.72 424.437 100.866 424.437C100.972 424.437 101.065 424.429 101.145 424.415C101.225 424.4 101.287 424.388 101.332 424.379L101.571 425.476C101.494 425.505 101.385 425.535 101.243 425.564C101.101 425.597 100.923 425.615 100.71 425.618C100.361 425.624 100.035 425.561 99.7336 425.431C99.4317 425.301 99.1876 425.1 99.0012 424.827C98.8147 424.555 98.7215 424.213 98.7215 423.802V417.077ZM102.915 425.529V418.711H104.198V419.794H104.269C104.393 419.427 104.612 419.138 104.926 418.928C105.243 418.715 105.601 418.609 106 418.609C106.083 418.609 106.181 418.611 106.293 418.617C106.409 418.623 106.499 418.631 106.564 418.64V419.909C106.511 419.894 106.416 419.878 106.28 419.86C106.144 419.84 106.008 419.829 105.871 419.829C105.558 419.829 105.278 419.896 105.033 420.029C104.79 420.159 104.598 420.341 104.455 420.575C104.313 420.806 104.242 421.069 104.242 421.365V425.529H102.915ZM107.713 425.529V418.711H109.04V425.529H107.713ZM108.383 417.659C108.152 417.659 107.954 417.582 107.788 417.428C107.625 417.271 107.544 417.085 107.544 416.868C107.544 416.649 107.625 416.463 107.788 416.309C107.954 416.152 108.152 416.074 108.383 416.074C108.614 416.074 108.81 416.152 108.973 416.309C109.139 416.463 109.222 416.649 109.222 416.868C109.222 417.085 109.139 417.271 108.973 417.428C108.81 417.582 108.614 417.659 108.383 417.659ZM112.81 425.68C112.377 425.68 111.987 425.6 111.638 425.44C111.288 425.277 111.012 425.042 110.808 424.734C110.606 424.426 110.506 424.049 110.506 423.602C110.506 423.218 110.58 422.901 110.728 422.652C110.876 422.404 111.075 422.207 111.327 422.062C111.578 421.917 111.86 421.808 112.17 421.734C112.481 421.66 112.798 421.603 113.12 421.565C113.529 421.518 113.86 421.479 114.115 421.449C114.369 421.417 114.554 421.365 114.669 421.294C114.785 421.223 114.843 421.108 114.843 420.948V420.917C114.843 420.529 114.733 420.229 114.514 420.016C114.298 419.803 113.975 419.696 113.546 419.696C113.1 419.696 112.747 419.795 112.49 419.993C112.235 420.189 112.059 420.406 111.962 420.646L110.714 420.362C110.862 419.948 111.078 419.613 111.362 419.359C111.649 419.101 111.979 418.915 112.352 418.799C112.725 418.681 113.117 418.622 113.529 418.622C113.801 418.622 114.089 418.654 114.394 418.72C114.702 418.782 114.989 418.897 115.255 419.066C115.525 419.234 115.745 419.476 115.917 419.789C116.088 420.1 116.174 420.504 116.174 421.001V425.529H114.878V424.597H114.825C114.739 424.768 114.61 424.937 114.439 425.103C114.267 425.268 114.047 425.406 113.777 425.515C113.508 425.625 113.185 425.68 112.81 425.68ZM113.098 424.614C113.465 424.614 113.779 424.542 114.039 424.397C114.302 424.252 114.502 424.062 114.638 423.829C114.777 423.592 114.847 423.339 114.847 423.07V422.191C114.8 422.238 114.708 422.282 114.572 422.324C114.439 422.362 114.286 422.396 114.115 422.426C113.943 422.453 113.776 422.478 113.613 422.501C113.45 422.522 113.314 422.54 113.205 422.555C112.947 422.587 112.712 422.642 112.499 422.719C112.289 422.796 112.12 422.907 111.993 423.052C111.868 423.194 111.806 423.383 111.806 423.62C111.806 423.949 111.928 424.197 112.17 424.366C112.413 424.532 112.722 424.614 113.098 424.614ZM119.269 416.438V425.529H117.942V416.438H119.269ZM127.608 418.711V419.776H123.755V418.711H127.608ZM124.811 425.529V417.92C124.811 417.494 124.904 417.141 125.091 416.86C125.277 416.576 125.524 416.364 125.832 416.225C126.14 416.083 126.474 416.012 126.835 416.012C127.102 416.012 127.33 416.034 127.519 416.078C127.708 416.12 127.849 416.158 127.941 416.194L127.63 417.268C127.568 417.25 127.488 417.23 127.39 417.206C127.293 417.179 127.174 417.166 127.035 417.166C126.713 417.166 126.482 417.246 126.343 417.406C126.207 417.565 126.138 417.796 126.138 418.098V425.529H124.811ZM130.754 425.68C130.322 425.68 129.931 425.6 129.582 425.44C129.233 425.277 128.956 425.042 128.752 424.734C128.551 424.426 128.45 424.049 128.45 423.602C128.45 423.218 128.524 422.901 128.672 422.652C128.82 422.404 129.02 422.207 129.271 422.062C129.523 421.917 129.804 421.808 130.115 421.734C130.425 421.66 130.742 421.603 131.065 421.565C131.473 421.518 131.804 421.479 132.059 421.449C132.313 421.417 132.498 421.365 132.614 421.294C132.729 421.223 132.787 421.108 132.787 420.948V420.917C132.787 420.529 132.677 420.229 132.458 420.016C132.242 419.803 131.92 419.696 131.491 419.696C131.044 419.696 130.692 419.795 130.434 419.993C130.18 420.189 130.004 420.406 129.906 420.646L128.659 420.362C128.807 419.948 129.023 419.613 129.307 419.359C129.594 419.101 129.924 418.915 130.297 418.799C130.67 418.681 131.062 418.622 131.473 418.622C131.745 418.622 132.034 418.654 132.339 418.72C132.646 418.782 132.933 418.897 133.2 419.066C133.469 419.234 133.689 419.476 133.861 419.789C134.033 420.1 134.119 420.504 134.119 421.001V425.529H132.822V424.597H132.769C132.683 424.768 132.555 424.937 132.383 425.103C132.211 425.268 131.991 425.406 131.722 425.515C131.452 425.625 131.13 425.68 130.754 425.68ZM131.042 424.614C131.409 424.614 131.723 424.542 131.983 424.397C132.247 424.252 132.447 424.062 132.583 423.829C132.722 423.592 132.791 423.339 132.791 423.07V422.191C132.744 422.238 132.652 422.282 132.516 422.324C132.383 422.362 132.231 422.396 132.059 422.426C131.887 422.453 131.72 422.478 131.557 422.501C131.395 422.522 131.258 422.54 131.149 422.555C130.891 422.587 130.656 422.642 130.443 422.719C130.233 422.796 130.064 422.907 129.937 423.052C129.813 423.194 129.751 423.383 129.751 423.62C129.751 423.949 129.872 424.197 130.115 424.366C130.357 424.532 130.667 424.614 131.042 424.614ZM135.993 425.529V416.438H137.32V419.816H137.4C137.477 419.674 137.588 419.51 137.733 419.323C137.878 419.137 138.079 418.974 138.337 418.835C138.594 418.693 138.934 418.622 139.358 418.622C139.908 418.622 140.399 418.761 140.831 419.039C141.263 419.317 141.602 419.718 141.848 420.242C142.096 420.766 142.221 421.396 142.221 422.133C142.221 422.87 142.098 423.502 141.852 424.028C141.607 424.552 141.269 424.956 140.84 425.24C140.411 425.521 139.921 425.662 139.371 425.662C138.957 425.662 138.618 425.592 138.354 425.453C138.094 425.314 137.89 425.152 137.742 424.965C137.594 424.779 137.48 424.613 137.4 424.468H137.289V425.529H135.993ZM137.294 422.12C137.294 422.599 137.363 423.019 137.502 423.38C137.641 423.741 137.842 424.024 138.106 424.228C138.369 424.429 138.692 424.53 139.074 424.53C139.47 424.53 139.801 424.425 140.068 424.215C140.334 424.002 140.535 423.713 140.672 423.349C140.811 422.985 140.88 422.575 140.88 422.12C140.88 421.67 140.812 421.266 140.676 420.908C140.543 420.55 140.342 420.267 140.072 420.06C139.806 419.853 139.473 419.749 139.074 419.749C138.689 419.749 138.363 419.848 138.097 420.047C137.834 420.245 137.634 420.522 137.498 420.877C137.362 421.232 137.294 421.646 137.294 422.12ZM143.711 425.529V418.711H144.994V419.794H145.065C145.189 419.427 145.408 419.138 145.722 418.928C146.039 418.715 146.397 418.609 146.796 418.609C146.879 418.609 146.977 418.611 147.089 418.617C147.205 418.623 147.295 418.631 147.36 418.64V419.909C147.307 419.894 147.212 419.878 147.076 419.86C146.94 419.84 146.804 419.829 146.667 419.829C146.354 419.829 146.074 419.896 145.828 420.029C145.586 420.159 145.393 420.341 145.251 420.575C145.109 420.806 145.038 421.069 145.038 421.365V425.529H143.711ZM148.508 425.529V418.711H149.836V425.529H148.508ZM149.179 417.659C148.948 417.659 148.75 417.582 148.584 417.428C148.421 417.271 148.34 417.085 148.34 416.868C148.34 416.649 148.421 416.463 148.584 416.309C148.75 416.152 148.948 416.074 149.179 416.074C149.41 416.074 149.606 416.152 149.769 416.309C149.935 416.463 150.018 416.649 150.018 416.868C150.018 417.085 149.935 417.271 149.769 417.428C149.606 417.582 149.41 417.659 149.179 417.659ZM154.493 425.666C153.833 425.666 153.265 425.517 152.789 425.218C152.315 424.916 151.951 424.5 151.697 423.971C151.442 423.441 151.315 422.834 151.315 422.151C151.315 421.458 151.445 420.847 151.706 420.318C151.966 419.785 152.333 419.369 152.806 419.07C153.28 418.771 153.838 418.622 154.48 418.622C154.998 418.622 155.459 418.718 155.865 418.91C156.27 419.1 156.597 419.366 156.846 419.709C157.097 420.053 157.247 420.454 157.294 420.912H156.002C155.931 420.593 155.769 420.318 155.514 420.087C155.263 419.856 154.925 419.74 154.502 419.74C154.132 419.74 153.808 419.838 153.53 420.033C153.255 420.226 153.04 420.501 152.886 420.859C152.732 421.214 152.655 421.634 152.655 422.12C152.655 422.617 152.731 423.046 152.882 423.407C153.033 423.768 153.246 424.048 153.521 424.246C153.799 424.444 154.126 424.543 154.502 424.543C154.754 424.543 154.981 424.497 155.186 424.406C155.393 424.311 155.566 424.176 155.705 424.002C155.847 423.827 155.946 423.617 156.002 423.371H157.294C157.247 423.812 157.103 424.206 156.864 424.552C156.624 424.898 156.303 425.171 155.9 425.369C155.501 425.567 155.032 425.666 154.493 425.666ZM160.698 425.68C160.266 425.68 159.875 425.6 159.526 425.44C159.177 425.277 158.9 425.042 158.696 424.734C158.495 424.426 158.394 424.049 158.394 423.602C158.394 423.218 158.468 422.901 158.616 422.652C158.764 422.404 158.964 422.207 159.215 422.062C159.467 421.917 159.748 421.808 160.059 421.734C160.369 421.66 160.686 421.603 161.008 421.565C161.417 421.518 161.748 421.479 162.003 421.449C162.257 421.417 162.442 421.365 162.558 421.294C162.673 421.223 162.731 421.108 162.731 420.948V420.917C162.731 420.529 162.621 420.229 162.402 420.016C162.186 419.803 161.864 419.696 161.435 419.696C160.988 419.696 160.636 419.795 160.378 419.993C160.124 420.189 159.948 420.406 159.85 420.646L158.603 420.362C158.751 419.948 158.967 419.613 159.251 419.359C159.538 419.101 159.868 418.915 160.241 418.799C160.613 418.681 161.005 418.622 161.417 418.622C161.689 418.622 161.978 418.654 162.282 418.72C162.59 418.782 162.877 418.897 163.144 419.066C163.413 419.234 163.633 419.476 163.805 419.789C163.977 420.1 164.062 420.504 164.062 421.001V425.529H162.766V424.597H162.713C162.627 424.768 162.498 424.937 162.327 425.103C162.155 425.268 161.935 425.406 161.665 425.515C161.396 425.625 161.074 425.68 160.698 425.68ZM160.986 424.614C161.353 424.614 161.667 424.542 161.927 424.397C162.191 424.252 162.39 424.062 162.527 423.829C162.666 423.592 162.735 423.339 162.735 423.07V422.191C162.688 422.238 162.596 422.282 162.46 422.324C162.327 422.362 162.174 422.396 162.003 422.426C161.831 422.453 161.664 422.478 161.501 422.501C161.338 422.522 161.202 422.54 161.093 422.555C160.835 422.587 160.6 422.642 160.387 422.719C160.177 422.796 160.008 422.907 159.881 423.052C159.757 423.194 159.695 423.383 159.695 423.62C159.695 423.949 159.816 424.197 160.059 424.366C160.301 424.532 160.61 424.614 160.986 424.614ZM169.013 418.711V419.776H165.289V418.711H169.013ZM166.287 417.077H167.615V423.527C167.615 423.784 167.653 423.978 167.73 424.108C167.807 424.236 167.906 424.323 168.027 424.37C168.152 424.415 168.286 424.437 168.431 424.437C168.538 424.437 168.631 424.429 168.711 424.415C168.791 424.4 168.853 424.388 168.898 424.379L169.137 425.476C169.06 425.505 168.951 425.535 168.809 425.564C168.667 425.597 168.489 425.615 168.276 425.618C167.927 425.624 167.601 425.561 167.299 425.431C166.998 425.301 166.754 425.1 166.567 424.827C166.381 424.555 166.287 424.213 166.287 423.802V417.077ZM173.28 425.666C172.641 425.666 172.083 425.52 171.606 425.227C171.13 424.934 170.76 424.524 170.497 423.997C170.233 423.471 170.102 422.855 170.102 422.151C170.102 421.444 170.233 420.825 170.497 420.295C170.76 419.766 171.13 419.354 171.606 419.061C172.083 418.768 172.641 418.622 173.28 418.622C173.919 418.622 174.477 418.768 174.953 419.061C175.43 419.354 175.8 419.766 176.063 420.295C176.326 420.825 176.458 421.444 176.458 422.151C176.458 422.855 176.326 423.471 176.063 423.997C175.8 424.524 175.43 424.934 174.953 425.227C174.477 425.52 173.919 425.666 173.28 425.666ZM173.284 424.552C173.699 424.552 174.042 424.443 174.314 424.224C174.586 424.005 174.788 423.713 174.918 423.349C175.051 422.985 175.118 422.584 175.118 422.146C175.118 421.711 175.051 421.312 174.918 420.948C174.788 420.581 174.586 420.286 174.314 420.064C174.042 419.843 173.699 419.732 173.284 419.732C172.867 419.732 172.521 419.843 172.246 420.064C171.973 420.286 171.771 420.581 171.637 420.948C171.507 421.312 171.442 421.711 171.442 422.146C171.442 422.584 171.507 422.985 171.637 423.349C171.771 423.713 171.973 424.005 172.246 424.224C172.521 424.443 172.867 424.552 173.284 424.552ZM177.94 425.529V418.711H179.222V419.794H179.293C179.418 419.427 179.637 419.138 179.95 418.928C180.267 418.715 180.625 418.609 181.025 418.609C181.107 418.609 181.205 418.611 181.318 418.617C181.433 418.623 181.523 418.631 181.588 418.64V419.909C181.535 419.894 181.44 419.878 181.304 419.86C181.168 419.84 181.032 419.829 180.896 419.829C180.582 419.829 180.303 419.896 180.057 420.029C179.814 420.159 179.622 420.341 179.48 420.575C179.338 420.806 179.267 421.069 179.267 421.365V425.529H177.94ZM187.846 420.375L186.643 420.588C186.593 420.434 186.513 420.288 186.403 420.149C186.297 420.01 186.152 419.896 185.968 419.807C185.785 419.718 185.556 419.674 185.28 419.674C184.905 419.674 184.591 419.758 184.339 419.927C184.088 420.093 183.962 420.307 183.962 420.571C183.962 420.798 184.046 420.982 184.215 421.121C184.384 421.26 184.656 421.374 185.032 421.463L186.115 421.711C186.742 421.856 187.21 422.08 187.518 422.382C187.825 422.683 187.979 423.076 187.979 423.558C187.979 423.966 187.861 424.33 187.624 424.65C187.39 424.967 187.063 425.215 186.643 425.396C186.226 425.576 185.742 425.666 185.192 425.666C184.428 425.666 183.805 425.504 183.323 425.178C182.841 424.85 182.545 424.384 182.435 423.78L183.718 423.585C183.798 423.919 183.962 424.172 184.211 424.344C184.459 424.512 184.783 424.597 185.183 424.597C185.618 424.597 185.966 424.506 186.226 424.326C186.486 424.142 186.617 423.919 186.617 423.656C186.617 423.443 186.537 423.263 186.377 423.118C186.22 422.973 185.979 422.864 185.653 422.79L184.499 422.537C183.863 422.392 183.392 422.161 183.088 421.845C182.786 421.528 182.635 421.127 182.635 420.642C182.635 420.239 182.747 419.887 182.972 419.585C183.197 419.283 183.508 419.048 183.904 418.879C184.301 418.708 184.755 418.622 185.267 418.622C186.004 418.622 186.584 418.782 187.007 419.101C187.43 419.418 187.71 419.843 187.846 420.375Z" fill="#7A8694"/>
</g>
<defs>
<filter id="filter0_d_5_405" x="0" y="282.76" width="253.354" height="224.891" filterUnits="userSpaceOnUse" color-interpolation-filters="sRGB">
<feFlood flood-opacity="0" result="BackgroundImageFix"/>
<feColorMatrix in="SourceAlpha" type="matrix" values="0 0 0 0 0 0 0 0 0 0 0 0 0 0 0 0 0 0 127 0" result="hardAlpha"/>
<feMorphology radius="12" operator="erode" in="SourceAlpha" result="effect1_dropShadow_5_405"/>
<feOffset dy="16"/>
<feGaussianBlur stdDeviation="24"/>
<feComposite in2="hardAlpha" operator="out"/>
<feColorMatrix type="matrix" values="0 0 0 0 0.0431373 0 0 0 0 0.145098 0 0 0 0 0.270588 0 0 0 0.1 0"/>
<feBlend mode="normal" in2="BackgroundImageFix" result="effect1_dropShadow_5_405"/>
<feBlend mode="normal" in="SourceGraphic" in2="effect1_dropShadow_5_405" result="shape"/>
</filter>
<linearGradient id="paint0_linear_5_405" x1="369.997" y1="0" x2="369.997" y2="427.656" gradientUnits="userSpaceOnUse">
<stop stop-color="#EDF2F7"/>
<stop offset="0.5" stop-color="#F5F7FA"/>
<stop offset="1" stop-color="#E8ECF2"/>
</linearGradient>
</defs>
</svg>
