<svg width="200" height="130" viewBox="0 0 200 130" fill="none" xmlns="http://www.w3.org/2000/svg">
<g opacity="0.7">
<g clip-path="url(#clip0_5_515)">
<path d="M100 63.375L181.25 104L100 144.625L18.75 104L100 63.375Z" fill="#F2F4F7" stroke="#E8ECF0" stroke-width="0.40625"/>
<path opacity="0.6" d="M71.5625 22.75H68.3125C67.8638 22.75 67.5 23.1138 67.5 23.5625V86.9375C67.5 87.3862 67.8638 87.75 68.3125 87.75H71.5625C72.0112 87.75 72.375 87.3862 72.375 86.9375V23.5625C72.375 23.1138 72.0112 22.75 71.5625 22.75Z" fill="#1B4F72"/>
<path opacity="0.6" d="M131.688 22.75H128.438C127.989 22.75 127.625 23.1138 127.625 23.5625V86.9375C127.625 87.3862 127.989 87.75 128.438 87.75H131.688C132.136 87.75 132.5 87.3862 132.5 86.9375V23.5625C132.5 23.1138 132.136 22.75 131.688 22.75Z" fill="#1B4F72"/>
<path opacity="0.35" d="M101.625 22.75H98.375C97.9263 22.75 97.5625 23.1138 97.5625 23.5625V86.9375C97.5625 87.3862 97.9263 87.75 98.375 87.75H101.625C102.074 87.75 102.438 87.3862 102.438 86.9375V23.5625C102.438 23.1138 102.074 22.75 101.625 22.75Z" fill="#1B4F72"/>
<path opacity="0.5" d="M131.688 22.75H68.3125C67.8638 22.75 67.5 23.1138 67.5 23.5625V26C67.5 26.4487 67.8638 26.8125 68.3125 26.8125H131.688C132.136 26.8125 132.5 26.4487 132.5 26V23.5625C132.5 23.1138 132.136 22.75 131.688 22.75Z" fill="#0B2545"/>
<path opacity="0.35" d="M131.688 53.625H68.3125C67.8638 53.625 67.5 53.9888 67.5 54.4375V56.0625C67.5 56.5112 67.8638 56.875 68.3125 56.875H131.688C132.136 56.875 132.5 56.5112 132.5 56.0625V54.4375C132.5 53.9888 132.136 53.625 131.688 53.625Z" fill="#0B2545"/>
<path opacity="0.5" d="M72.375 26.8125L97.5625 53.625" stroke="#7EC8E3" stroke-width="1.21875"/>
<path opacity="0.5" d="M97.5625 26.8125L72.375 53.625" stroke="#7EC8E3" stroke-width="1.21875"/>
<path opacity="0.5" d="M102.438 26.8125L127.625 53.625" stroke="#7EC8E3" stroke-width="1.21875"/>
<path opacity="0.6" d="M69.9375 26.4062C70.835 26.4062 71.5625 25.6787 71.5625 24.7812C71.5625 23.8838 70.835 23.1562 69.9375 23.1562C69.04 23.1562 68.3125 23.8838 68.3125 24.7812C68.3125 25.6787 69.04 26.4062 69.9375 26.4062Z" fill="#5DADE2"/>
<path opacity="0.6" d="M130.062 26.4062C130.96 26.4062 131.688 25.6787 131.688 24.7812C131.688 23.8838 130.96 23.1562 130.062 23.1562C129.165 23.1562 128.438 23.8838 128.438 24.7812C128.438 25.6787 129.165 26.4062 130.062 26.4062Z" fill="#5DADE2"/>
<path opacity="0.6" d="M100 26.4062C100.897 26.4062 101.625 25.6787 101.625 24.7812C101.625 23.8838 100.897 23.1562 100 23.1562C99.1025 23.1562 98.375 23.8838 98.375 24.7812C98.375 25.6787 99.1025 26.4062 100 26.4062Z" fill="#5DADE2"/>
<path opacity="0.85" d="M51.25 82.4688C53.718 82.4688 55.7188 80.468 55.7188 78C55.7188 75.532 53.718 73.5312 51.25 73.5312C48.782 73.5312 46.7812 75.532 46.7812 78C46.7812 80.468 48.782 82.4688 51.25 82.4688Z" fill="#0B2545"/>
<path opacity="0.7" d="M52.875 82.875H49.625C48.2788 82.875 47.1875 83.9663 47.1875 85.3125V93.4375C47.1875 94.7837 48.2788 95.875 49.625 95.875H52.875C54.2212 95.875 55.3125 94.7837 55.3125 93.4375V85.3125C55.3125 83.9663 54.2212 82.875 52.875 82.875Z" fill="#0B2545"/>
<path opacity="0.5" d="M49.625 95.875H49.2188C48.5457 95.875 48 96.4207 48 97.0938V104.406C48 105.079 48.5457 105.625 49.2188 105.625H49.625C50.2981 105.625 50.8438 105.079 50.8438 104.406V97.0938C50.8438 96.4207 50.2981 95.875 49.625 95.875Z" fill="#0B2545"/>
<path opacity="0.5" d="M53.2812 95.875H52.875C52.2019 95.875 51.6562 96.4207 51.6562 97.0938V104.406C51.6562 105.079 52.2019 105.625 52.875 105.625H53.2812C53.9543 105.625 54.5 105.079 54.5 104.406V97.0938C54.5 96.4207 53.9543 95.875 53.2812 95.875Z" fill="#0B2545"/>
<path opacity="0.85" d="M152.813 84.2969C155.034 84.2969 156.834 82.4963 156.834 80.275C156.834 78.0538 155.034 76.2532 152.813 76.2532C150.591 76.2532 148.791 78.0538 148.791 80.275C148.791 82.4963 150.591 84.2969 152.813 84.2969Z" fill="#1B4F72"/>
<path opacity="0.7" d="M154.275 84.6626H151.35C150.138 84.6626 149.156 85.6448 149.156 86.8563V94.1688C149.156 95.3804 150.138 96.3626 151.35 96.3626H154.275C155.487 96.3626 156.469 95.3804 156.469 94.1688V86.8563C156.469 85.6448 155.487 84.6626 154.275 84.6626Z" fill="#1B4F72"/>
<path opacity="0.5" d="M151.35 96.3625H150.984C150.379 96.3625 149.887 96.8536 149.887 97.4594V104.041C149.887 104.646 150.379 105.138 150.984 105.138H151.35C151.956 105.138 152.447 104.646 152.447 104.041V97.4594C152.447 96.8536 151.956 96.3625 151.35 96.3625Z" fill="#1B4F72"/>
<path opacity="0.5" d="M154.641 96.3625H154.275C153.669 96.3625 153.178 96.8536 153.178 97.4594V104.041C153.178 104.646 153.669 105.138 154.275 105.138H154.641C155.246 105.138 155.737 104.646 155.737 104.041V97.4594C155.737 96.8536 155.246 96.3625 154.641 96.3625Z" fill="#1B4F72"/>
<path d="M154.844 78H142.656C141.534 78 140.625 78.9094 140.625 80.0312C140.625 81.1531 141.534 82.0625 142.656 82.0625H154.844C155.966 82.0625 156.875 81.1531 156.875 80.0312C156.875 78.9094 155.966 78 154.844 78Z" fill="#B8E2F2" stroke="#7EC8E3" stroke-width="0.56875"/>
<path d="M154.438 82.0625H143.062V96.6875H154.438V82.0625Z" fill="white" stroke="#E8ECF0" stroke-width="0.40625"/>
<path d="M145.5 85.3125H152" stroke="#E8ECF0" stroke-width="0.40625"/>
<path d="M145.5 87.75H152" stroke="#E8ECF0" stroke-width="0.40625"/>
</g>
</g>
<defs>
<clipPath id="clip0_5_515">
<rect width="200" height="130" fill="white"/>
</clipPath>
</defs>
</svg>
