<svg width="200" height="130" viewBox="0 0 200 130" fill="none" xmlns="http://www.w3.org/2000/svg">
<g opacity="0.7">
<g clip-path="url(#clip0_5_637)">
<path d="M100 63.375L181.25 104L100 144.625L18.75 104L100 63.375Z" fill="#F2F4F7" stroke="#E8ECF0" stroke-width="0.40625"/>
<path d="M126 17.875H74C72.6538 17.875 71.5625 18.9663 71.5625 20.3125V84.5C71.5625 85.8462 72.6538 86.9375 74 86.9375H126C127.346 86.9375 128.438 85.8462 128.438 84.5V20.3125C128.438 18.9663 127.346 17.875 126 17.875Z" fill="#F2F4F7" stroke="#D0D7DE" stroke-width="0.8125"/>
<path d="M123.562 21.125H76.4375C75.54 21.125 74.8125 21.8525 74.8125 22.75V55.25C74.8125 56.1475 75.54 56.875 76.4375 56.875H123.562C124.46 56.875 125.188 56.1475 125.188 55.25V22.75C125.188 21.8525 124.46 21.125 123.562 21.125Z" fill="white" stroke="#E8ECF0" stroke-width="0.65"/>
<path opacity="0.05" d="M121.125 24.375H78.875C78.4263 24.375 78.0625 24.7388 78.0625 25.1875V52.8125C78.0625 53.2612 78.4263 53.625 78.875 53.625H121.125C121.574 53.625 121.938 53.2612 121.938 52.8125V25.1875C121.938 24.7388 121.574 24.375 121.125 24.375Z" fill="#0B2545"/>
<path d="M81.3125 39L86.1875 32.5L91.0625 42.25L95.9375 35.75L100.812 40.625L105.688 30.875L110.562 37.375L115.438 34.125L118.688 39" stroke="#5DADE2" stroke-width="1.21875" stroke-linecap="round" stroke-linejoin="round"/>
<path opacity="0.4" d="M93.0938 45.5H79.2812C78.6082 45.5 78.0625 46.0457 78.0625 46.7188C78.0625 47.3918 78.6082 47.9375 79.2812 47.9375H93.0938C93.7668 47.9375 94.3125 47.3918 94.3125 46.7188C94.3125 46.0457 93.7668 45.5 93.0938 45.5Z" fill="#7EC8E3"/>
<path opacity="0.4" d="M106.094 45.5H98.7812C98.1082 45.5 97.5625 46.0457 97.5625 46.7188C97.5625 47.3918 98.1082 47.9375 98.7812 47.9375H106.094C106.767 47.9375 107.312 47.3918 107.312 46.7188C107.312 46.0457 106.767 45.5 106.094 45.5Z" fill="#4ADE80"/>
<path opacity="0.5" d="M83.75 69.875C85.5449 69.875 87 68.4199 87 66.625C87 64.8301 85.5449 63.375 83.75 63.375C81.9551 63.375 80.5 64.8301 80.5 66.625C80.5 68.4199 81.9551 69.875 83.75 69.875Z" fill="#5DADE2"/>
<path opacity="0.5" d="M95.9375 69.875C97.7324 69.875 99.1875 68.4199 99.1875 66.625C99.1875 64.8301 97.7324 63.375 95.9375 63.375C94.1426 63.375 92.6875 64.8301 92.6875 66.625C92.6875 68.4199 94.1426 69.875 95.9375 69.875Z" fill="#4ADE80"/>
<path d="M108.125 69.875C109.92 69.875 111.375 68.4199 111.375 66.625C111.375 64.8301 109.92 63.375 108.125 63.375C106.33 63.375 104.875 64.8301 104.875 66.625C104.875 68.4199 106.33 69.875 108.125 69.875Z" fill="#E8ECF0" stroke="#D0D7DE" stroke-width="0.40625"/>
<path d="M120.312 69.875C122.107 69.875 123.562 68.4199 123.562 66.625C123.562 64.8301 122.107 63.375 120.312 63.375C118.518 63.375 117.062 64.8301 117.062 66.625C117.062 68.4199 118.518 69.875 120.312 69.875Z" fill="#E8ECF0" stroke="#D0D7DE" stroke-width="0.40625"/>
<path opacity="0.6" d="M83.3438 74.75H79.2812C78.6082 74.75 78.0625 75.2957 78.0625 75.9688C78.0625 76.6418 78.6082 77.1875 79.2812 77.1875H83.3438C84.0168 77.1875 84.5625 76.6418 84.5625 75.9688C84.5625 75.2957 84.0168 74.75 83.3438 74.75Z" fill="#4ADE80"/>
<path opacity="0.6" d="M93.0938 74.75H89.0312C88.3582 74.75 87.8125 75.2957 87.8125 75.9688C87.8125 76.6418 88.3582 77.1875 89.0312 77.1875H93.0938C93.7668 77.1875 94.3125 76.6418 94.3125 75.9688C94.3125 75.2957 93.7668 74.75 93.0938 74.75Z" fill="#5DADE2"/>
<path d="M102.844 74.75H98.7812C98.1082 74.75 97.5625 75.2957 97.5625 75.9688C97.5625 76.6418 98.1082 77.1875 98.7812 77.1875H102.844C103.517 77.1875 104.062 76.6418 104.062 75.9688C104.062 75.2957 103.517 74.75 102.844 74.75Z" fill="#D0D7DE"/>
<path opacity="0.85" d="M52.875 82.4688C55.343 82.4688 57.3438 80.468 57.3438 78C57.3438 75.532 55.343 73.5312 52.875 73.5312C50.407 73.5312 48.4062 75.532 48.4062 78C48.4062 80.468 50.407 82.4688 52.875 82.4688Z" fill="#0B2545"/>
<path opacity="0.7" d="M54.5 82.875H51.25C49.9038 82.875 48.8125 83.9663 48.8125 85.3125V93.4375C48.8125 94.7837 49.9038 95.875 51.25 95.875H54.5C55.8462 95.875 56.9375 94.7837 56.9375 93.4375V85.3125C56.9375 83.9663 55.8462 82.875 54.5 82.875Z" fill="#0B2545"/>
<path opacity="0.5" d="M51.25 95.875H50.8438C50.1707 95.875 49.625 96.4207 49.625 97.0938V104.406C49.625 105.079 50.1707 105.625 50.8438 105.625H51.25C51.9231 105.625 52.4688 105.079 52.4688 104.406V97.0938C52.4688 96.4207 51.9231 95.875 51.25 95.875Z" fill="#0B2545"/>
<path opacity="0.5" d="M54.9062 95.875H54.5C53.8269 95.875 53.2812 96.4207 53.2812 97.0938V104.406C53.2812 105.079 53.8269 105.625 54.5 105.625H54.9062C55.5793 105.625 56.125 105.079 56.125 104.406V97.0938C56.125 96.4207 55.5793 95.875 54.9062 95.875Z" fill="#0B2545"/>
<path opacity="0.85" d="M148.75 82.4688C151.218 82.4688 153.219 80.468 153.219 78C153.219 75.532 151.218 73.5312 148.75 73.5312C146.282 73.5312 144.281 75.532 144.281 78C144.281 80.468 146.282 82.4688 148.75 82.4688Z" fill="#1B4F72"/>
<path opacity="0.7" d="M150.375 82.875H147.125C145.779 82.875 144.688 83.9663 144.688 85.3125V93.4375C144.688 94.7837 145.779 95.875 147.125 95.875H150.375C151.721 95.875 152.812 94.7837 152.812 93.4375V85.3125C152.812 83.9663 151.721 82.875 150.375 82.875Z" fill="#1B4F72"/>
<path opacity="0.5" d="M147.125 95.875H146.719C146.046 95.875 145.5 96.4207 145.5 97.0938V104.406C145.5 105.079 146.046 105.625 146.719 105.625H147.125C147.798 105.625 148.344 105.079 148.344 104.406V97.0938C148.344 96.4207 147.798 95.875 147.125 95.875Z" fill="#1B4F72"/>
<path opacity="0.5" d="M150.781 95.875H150.375C149.702 95.875 149.156 96.4207 149.156 97.0938V104.406C149.156 105.079 149.702 105.625 150.375 105.625H150.781C151.454 105.625 152 105.079 152 104.406V97.0938C152 96.4207 151.454 95.875 150.781 95.875Z" fill="#1B4F72"/>
<path opacity="0.5" d="M128.438 65C133.854 70.4167 139.271 72.5833 144.688 71.5C150.104 70.4167 151.458 73.6667 148.75 81.25" stroke="#7EC8E3" stroke-width="0.8125" stroke-dasharray="2.44 1.62"/>
</g>
</g>
<defs>
<clipPath id="clip0_5_637">
<rect width="200" height="130" fill="white"/>
</clipPath>
</defs>
</svg>
