<svg width="200" height="130" viewBox="0 0 200 130" fill="none" xmlns="http://www.w3.org/2000/svg">
<g opacity="0.7">
<g clip-path="url(#clip0_5_557)">
<path d="M100 63.375L181.25 104L100 144.625L18.75 104L100 63.375Z" fill="#F2F4F7" stroke="#E8ECF0" stroke-width="0.40625"/>
<path d="M116.25 48.75C116.25 39.7754 108.975 32.5 100 32.5C91.0254 32.5 83.75 39.7754 83.75 48.75V73.125C83.75 82.0996 91.0254 89.375 100 89.375C108.975 89.375 116.25 82.0996 116.25 73.125V48.75Z" fill="#F2F4F7" stroke="#D0D7DE" stroke-width="0.975"/>
<path d="M100 40.625C108.975 40.625 116.25 37.7149 116.25 34.125C116.25 30.5351 108.975 27.625 100 27.625C91.0254 27.625 83.75 30.5351 83.75 34.125C83.75 37.7149 91.0254 40.625 100 40.625Z" fill="#E8ECF0" stroke="#D0D7DE" stroke-width="0.8125"/>
<path d="M100 94.25C108.975 94.25 116.25 91.3399 116.25 87.75C116.25 84.1601 108.975 81.25 100 81.25C91.0254 81.25 83.75 84.1601 83.75 87.75C83.75 91.3399 91.0254 94.25 100 94.25Z" fill="#F2F4F7" stroke="#D0D7DE" stroke-width="0.8125"/>
<path opacity="0.5" d="M103.25 24.375H96.75C96.3013 24.375 95.9375 24.7388 95.9375 25.1875V33.3125C95.9375 33.7612 96.3013 34.125 96.75 34.125H103.25C103.699 34.125 104.062 33.7612 104.062 33.3125V25.1875C104.062 24.7388 103.699 24.375 103.25 24.375Z" fill="#1B4F72"/>
<path opacity="0.4" d="M104.875 22.75H95.125C94.2275 22.75 93.5 23.4775 93.5 24.375C93.5 25.2725 94.2275 26 95.125 26H104.875C105.772 26 106.5 25.2725 106.5 24.375C106.5 23.4775 105.772 22.75 104.875 22.75Z" fill="#1B4F72"/>
<path opacity="0.4" d="M85.375 52.8125H114.625" stroke="#7EC8E3" stroke-width="0.65" stroke-dasharray="2.44 1.62"/>
<path opacity="0.4" d="M85.375 69.0625H114.625" stroke="#7EC8E3" stroke-width="0.65" stroke-dasharray="2.44 1.62"/>
<path d="M108.125 65.8125C110.817 65.8125 113 63.6299 113 60.9375C113 58.2451 110.817 56.0625 108.125 56.0625C105.433 56.0625 103.25 58.2451 103.25 60.9375C103.25 63.6299 105.433 65.8125 108.125 65.8125Z" fill="white" stroke="#1B4F72" stroke-width="0.8125"/>
<path d="M108.125 60.9375L110.562 57.6875" stroke="#5DADE2" stroke-width="0.8125" stroke-linecap="round"/>
<path opacity="0.85" d="M57.75 82.4688C60.218 82.4688 62.2188 80.468 62.2188 78C62.2188 75.532 60.218 73.5312 57.75 73.5312C55.282 73.5312 53.2812 75.532 53.2812 78C53.2812 80.468 55.282 82.4688 57.75 82.4688Z" fill="#0B2545"/>
<path opacity="0.7" d="M59.375 82.875H56.125C54.7788 82.875 53.6875 83.9663 53.6875 85.3125V93.4375C53.6875 94.7837 54.7788 95.875 56.125 95.875H59.375C60.7212 95.875 61.8125 94.7837 61.8125 93.4375V85.3125C61.8125 83.9663 60.7212 82.875 59.375 82.875Z" fill="#0B2545"/>
<path opacity="0.5" d="M56.125 95.875H55.7188C55.0457 95.875 54.5 96.4207 54.5 97.0938V104.406C54.5 105.079 55.0457 105.625 55.7188 105.625H56.125C56.7981 105.625 57.3438 105.079 57.3438 104.406V97.0938C57.3438 96.4207 56.7981 95.875 56.125 95.875Z" fill="#0B2545"/>
<path opacity="0.5" d="M59.7812 95.875H59.375C58.7019 95.875 58.1562 96.4207 58.1562 97.0938V104.406C58.1562 105.079 58.7019 105.625 59.375 105.625H59.7812C60.4543 105.625 61 105.079 61 104.406V97.0938C61 96.4207 60.4543 95.875 59.7812 95.875Z" fill="#0B2545"/>
<path opacity="0.85" d="M144.688 82.4688C147.156 82.4688 149.156 80.468 149.156 78C149.156 75.532 147.156 73.5312 144.688 73.5312C142.219 73.5312 140.219 75.532 140.219 78C140.219 80.468 142.219 82.4688 144.688 82.4688Z" fill="#1B4F72"/>
<path opacity="0.7" d="M146.312 82.875H143.062C141.716 82.875 140.625 83.9663 140.625 85.3125V93.4375C140.625 94.7837 141.716 95.875 143.062 95.875H146.312C147.659 95.875 148.75 94.7837 148.75 93.4375V85.3125C148.75 83.9663 147.659 82.875 146.312 82.875Z" fill="#1B4F72"/>
<path opacity="0.5" d="M143.062 95.875H142.656C141.983 95.875 141.438 96.4207 141.438 97.0938V104.406C141.438 105.079 141.983 105.625 142.656 105.625H143.062C143.736 105.625 144.281 105.079 144.281 104.406V97.0938C144.281 96.4207 143.736 95.875 143.062 95.875Z" fill="#1B4F72"/>
<path opacity="0.5" d="M146.719 95.875H146.312C145.639 95.875 145.094 96.4207 145.094 97.0938V104.406C145.094 105.079 145.639 105.625 146.312 105.625H146.719C147.392 105.625 147.938 105.079 147.938 104.406V97.0938C147.938 96.4207 147.392 95.875 146.719 95.875Z" fill="#1B4F72"/>
<path d="M58.9688 82.0625H45.1562C44.9319 82.0625 44.75 82.2444 44.75 82.4688V82.875C44.75 83.0994 44.9319 83.2812 45.1562 83.2812H58.9688C59.1931 83.2812 59.375 83.0994 59.375 82.875V82.4688C59.375 82.2444 59.1931 82.0625 58.9688 82.0625Z" fill="#D0D7DE"/>
<path opacity="0.15" d="M57.3438 72.3125H46.7812C46.1082 72.3125 45.5625 72.8582 45.5625 73.5312V80.8438C45.5625 81.5168 46.1082 82.0625 46.7812 82.0625H57.3438C58.0168 82.0625 58.5625 81.5168 58.5625 80.8438V73.5312C58.5625 72.8582 58.0168 72.3125 57.3438 72.3125Z" fill="#0B2545" stroke="#D0D7DE" stroke-width="0.4875"/>
<path d="M56.5312 73.9375H47.5938C47.3694 73.9375 47.1875 74.1194 47.1875 74.3438V80.0312C47.1875 80.2556 47.3694 80.4375 47.5938 80.4375H56.5312C56.7556 80.4375 56.9375 80.2556 56.9375 80.0312V74.3438C56.9375 74.1194 56.7556 73.9375 56.5312 73.9375Z" fill="#B8E2F2" fill-opacity="0.4"/>
</g>
</g>
<defs>
<clipPath id="clip0_5_557">
<rect width="200" height="130" fill="white"/>
</clipPath>
</defs>
</svg>
