<svg width="620" height="428" viewBox="0 0 620 428" fill="none" xmlns="http://www.w3.org/2000/svg">
<mask id="path-1-inside-1_5_406" fill="white">
<path d="M0 16C0 7.16345 7.16344 0 16 0H604C612.837 0 620 7.16344 620 16V411.656C620 420.493 612.837 427.656 604 427.656H16C7.16343 427.656 0 420.493 0 411.656V16Z"/>
</mask>
<path d="M0 16C0 7.16345 7.16344 0 16 0H604C612.837 0 620 7.16344 620 16V411.656C620 420.493 612.837 427.656 604 427.656H16C7.16343 427.656 0 420.493 0 411.656V16Z" fill="url(#paint0_linear_5_406)"/>
<path d="M16 0V0.833333H604V0V-0.833333H16V0ZM620 16H619.167V411.656H620H620.833V16H620ZM604 427.656V426.823H16V427.656V428.49H604V427.656ZM0 411.656H0.833333V16H0H-0.833333V411.656H0ZM16 427.656V426.823C7.62367 426.823 0.833333 420.033 0.833333 411.656H0H-0.833333C-0.833333 420.953 6.70319 428.49 16 428.49V427.656ZM620 411.656H619.167C619.167 420.033 612.376 426.823 604 426.823V427.656V428.49C613.297 428.49 620.833 420.953 620.833 411.656H620ZM604 0V0.833333C612.376 0.833333 619.167 7.62368 619.167 16H620H620.833C620.833 6.70321 613.297 -0.833333 604 -0.833333V0ZM16 0V-0.833333C6.70321 -0.833333 -0.833333 6.70321 -0.833333 16H0H0.833333C0.833333 7.62369 7.62368 0.833333 16 0.833333V0Z" fill="#E0E5EB" fill-opacity="0.6" mask="url(#path-1-inside-1_5_406)"/>
<path d="M310 305.495L475 241.328L310 177.161L145 241.328L310 305.495Z" fill="#F2F4F7" stroke="#E8ECF0" stroke-width="0.458333"/>
<path d="M310 204.661L383.333 232.161L310 259.661L236.667 232.161L310 204.661Z" fill="white" stroke="#D0D7DE" stroke-width="0.733333"/>
<path d="M236.667 232.161V248.661" stroke="#D0D7DE" stroke-width="1.83333"/>
<path d="M383.333 232.161V248.661" stroke="#D0D7DE" stroke-width="1.83333"/>
<path d="M310 259.661V276.161" stroke="#D0D7DE" stroke-width="1.83333"/>
<path d="M264.167 215.661L310 230.328L282.5 241.328L245.833 226.661L264.167 215.661Z" fill="#B8E2F2" fill-opacity="0.4" stroke="#7EC8E3" stroke-width="0.458333"/>
<path d="M310 211.995L355.833 226.662L332.917 235.828L287.083 221.162L310 211.995Z" fill="white" stroke="#E8ECF0" stroke-width="0.458333"/>
<path opacity="0.3" d="M300.833 219.328L337.5 230.328" stroke="#1B4F72" stroke-width="0.458333"/>
<path opacity="0.3" d="M305.417 222.995L332.917 232.162" stroke="#1B4F72" stroke-width="0.458333"/>
<path d="M348.5 122.161H271.5C269.981 122.161 268.75 123.393 268.75 124.911V174.411C268.75 175.93 269.981 177.161 271.5 177.161H348.5C350.019 177.161 351.25 175.93 351.25 174.411V124.911C351.25 123.393 350.019 122.161 348.5 122.161Z" fill="white" stroke="#D0D7DE" stroke-width="0.916667"/>
<path opacity="0.04" d="M346.208 125.828H273.792C273.032 125.828 272.417 126.444 272.417 127.203V172.12C272.417 172.879 273.032 173.495 273.792 173.495H346.208C346.968 173.495 347.583 172.879 347.583 172.12V127.203C347.583 126.444 346.968 125.828 346.208 125.828Z" fill="#0B2545"/>
<path opacity="0.3" d="M304.5 131.328H278.833C278.327 131.328 277.917 131.739 277.917 132.245V148.745C277.917 149.251 278.327 149.661 278.833 149.661H304.5C305.006 149.661 305.417 149.251 305.417 148.745V132.245C305.417 131.739 305.006 131.328 304.5 131.328Z" stroke="#1B4F72" stroke-width="0.641667"/>
<path opacity="0.3" d="M339.333 131.328H313.667C313.16 131.328 312.75 131.739 312.75 132.245V148.745C312.75 149.251 313.16 149.661 313.667 149.661H339.333C339.84 149.661 340.25 149.251 340.25 148.745V132.245C340.25 131.739 339.84 131.328 339.333 131.328Z" stroke="#7EC8E3" stroke-width="0.641667"/>
<path d="M277.917 156.995H334.75" stroke="#E8ECF0" stroke-width="0.641667"/>
<path d="M277.917 160.661H319.167" stroke="#E8ECF0" stroke-width="0.641667"/>
<path d="M277.917 164.328H305.417" stroke="#E8ECF0" stroke-width="0.641667"/>
<path d="M315.5 177.161H304.5C303.994 177.161 303.583 177.572 303.583 178.078V198.245C303.583 198.751 303.994 199.161 304.5 199.161H315.5C316.006 199.161 316.417 198.751 316.417 198.245V178.078C316.417 177.572 316.006 177.161 315.5 177.161Z" fill="#E8ECF0"/>
<path opacity="0.85" d="M218.333 258.516C221.953 258.516 224.887 255.581 224.887 251.961C224.887 248.342 221.953 245.407 218.333 245.407C214.713 245.407 211.779 248.342 211.779 251.961C211.779 255.581 214.713 258.516 218.333 258.516Z" fill="#0B2545"/>
<path opacity="0.7" d="M220.717 259.111H215.95C213.976 259.111 212.375 260.712 212.375 262.686V274.603C212.375 276.578 213.976 278.178 215.95 278.178H220.717C222.691 278.178 224.292 276.578 224.292 274.603V262.686C224.292 260.712 222.691 259.111 220.717 259.111Z" fill="#0B2545"/>
<path opacity="0.5" d="M215.95 278.178H215.354C214.367 278.178 213.567 278.978 213.567 279.966V290.691C213.567 291.678 214.367 292.478 215.354 292.478H215.95C216.937 292.478 217.737 291.678 217.737 290.691V279.966C217.737 278.978 216.937 278.178 215.95 278.178Z" fill="#0B2545"/>
<path opacity="0.5" d="M221.312 278.178H220.716C219.729 278.178 218.929 278.978 218.929 279.966V290.691C218.929 291.678 219.729 292.478 220.716 292.478H221.312C222.299 292.478 223.1 291.678 223.1 290.691V279.966C223.1 278.978 222.299 278.178 221.312 278.178Z" fill="#0B2545"/>
<path opacity="0.85" d="M282.5 237.432C286.12 237.432 289.054 234.498 289.054 230.878C289.054 227.258 286.12 224.324 282.5 224.324C278.88 224.324 275.946 227.258 275.946 230.878C275.946 234.498 278.88 237.432 282.5 237.432Z" fill="#1B4F72"/>
<path opacity="0.7" d="M284.883 238.028H280.117C278.142 238.028 276.542 239.629 276.542 241.603V253.52C276.542 255.494 278.142 257.095 280.117 257.095H284.883C286.858 257.095 288.458 255.494 288.458 253.52V241.603C288.458 239.629 286.858 238.028 284.883 238.028Z" fill="#1B4F72"/>
<path opacity="0.5" d="M280.117 257.095H279.521C278.534 257.095 277.733 257.895 277.733 258.882V269.607C277.733 270.595 278.534 271.395 279.521 271.395H280.117C281.104 271.395 281.904 270.595 281.904 269.607V258.882C281.904 257.895 281.104 257.095 280.117 257.095Z" fill="#1B4F72"/>
<path opacity="0.5" d="M285.479 257.095H284.883C283.896 257.095 283.096 257.895 283.096 258.882V269.607C283.096 270.595 283.896 271.395 284.883 271.395H285.479C286.466 271.395 287.267 270.595 287.267 269.607V258.882C287.267 257.895 286.466 257.095 285.479 257.095Z" fill="#1B4F72"/>
<path opacity="0.85" d="M374.167 258.745C377.508 258.745 380.217 256.036 380.217 252.695C380.217 249.353 377.508 246.645 374.167 246.645C370.825 246.645 368.117 249.353 368.117 252.695C368.117 256.036 370.825 258.745 374.167 258.745Z" fill="#0B2545"/>
<path opacity="0.7" d="M376.367 259.295H371.967C370.144 259.295 368.667 260.772 368.667 262.595V273.595C368.667 275.417 370.144 276.895 371.967 276.895H376.367C378.189 276.895 379.667 275.417 379.667 273.595V262.595C379.667 260.772 378.189 259.295 376.367 259.295Z" fill="#0B2545"/>
<path opacity="0.5" d="M371.967 276.895H371.417C370.505 276.895 369.767 277.634 369.767 278.545V288.445C369.767 289.356 370.505 290.095 371.417 290.095H371.967C372.878 290.095 373.617 289.356 373.617 288.445V278.545C373.617 277.634 372.878 276.895 371.967 276.895Z" fill="#0B2545"/>
<path opacity="0.5" d="M376.917 276.895H376.367C375.456 276.895 374.717 277.634 374.717 278.545V288.445C374.717 289.356 375.456 290.095 376.367 290.095H376.917C377.828 290.095 378.567 289.356 378.567 288.445V278.545C378.567 277.634 377.828 276.895 376.917 276.895Z" fill="#0B2545"/>
<path opacity="0.85" d="M410.833 253.474C413.896 253.474 416.379 250.991 416.379 247.928C416.379 244.865 413.896 242.382 410.833 242.382C407.771 242.382 405.288 244.865 405.288 247.928C405.288 250.991 407.771 253.474 410.833 253.474Z" fill="#1B4F72"/>
<path opacity="0.7" d="M412.85 253.978H408.817C407.146 253.978 405.792 255.332 405.792 257.003V267.086C405.792 268.757 407.146 270.111 408.817 270.111H412.85C414.521 270.111 415.875 268.757 415.875 267.086V257.003C415.875 255.332 414.521 253.978 412.85 253.978Z" fill="#1B4F72"/>
<path opacity="0.5" d="M408.817 270.111H408.313C407.477 270.111 406.8 270.789 406.8 271.624V280.699C406.8 281.534 407.477 282.211 408.313 282.211H408.817C409.652 282.211 410.329 281.534 410.329 280.699V271.624C410.329 270.789 409.652 270.111 408.817 270.111Z" fill="#1B4F72"/>
<path opacity="0.5" d="M413.354 270.111H412.85C412.015 270.111 411.338 270.789 411.338 271.624V280.699C411.338 281.534 412.015 282.211 412.85 282.211H413.354C414.19 282.211 414.867 281.534 414.867 280.699V271.624C414.867 270.789 414.19 270.111 413.354 270.111Z" fill="#1B4F72"/>
<path opacity="0.3" d="M291.667 241.328L310 204.661" stroke="#0B2545" stroke-width="0.916667" stroke-linecap="round"/>
<g opacity="0.25">
<path d="M152.333 185.411C152.333 180.855 148.64 177.161 144.083 177.161C139.527 177.161 135.833 180.855 135.833 185.411V223.911C135.833 228.468 139.527 232.161 144.083 232.161C148.64 232.161 152.333 228.468 152.333 223.911V185.411Z" fill="#1B4F72"/>
<path d="M144.083 182.661C148.64 182.661 152.333 181.02 152.333 178.995C152.333 176.97 148.64 175.328 144.083 175.328C139.527 175.328 135.833 176.97 135.833 178.995C135.833 181.02 139.527 182.661 144.083 182.661Z" fill="#D0D7DE"/>
<path d="M146.833 167.995H141.333V180.828H146.833V167.995Z" fill="#1B4F72"/>
</g>
<g opacity="0.2">
<path d="M466.75 177.161H450.25C448.731 177.161 447.5 178.393 447.5 179.911V220.245C447.5 221.763 448.731 222.995 450.25 222.995H466.75C468.269 222.995 469.5 221.763 469.5 220.245V179.911C469.5 178.393 468.269 177.161 466.75 177.161Z" fill="#1B4F72"/>
<path d="M464 167.995H453C451.988 167.995 451.167 168.816 451.167 169.828V178.995C451.167 180.007 451.988 180.828 453 180.828H464C465.013 180.828 465.833 180.007 465.833 178.995V169.828C465.833 168.816 465.013 167.995 464 167.995Z" fill="#D0D7DE"/>
<path d="M461.25 162.495H455.75C455.244 162.495 454.833 162.905 454.833 163.411V170.745C454.833 171.251 455.244 171.661 455.75 171.661H461.25C461.756 171.661 462.167 171.251 462.167 170.745V163.411C462.167 162.905 461.756 162.495 461.25 162.495Z" fill="#1B4F72"/>
</g>
<defs>
<linearGradient id="paint0_linear_5_406" x1="310" y1="0" x2="310" y2="427.656" gradientUnits="userSpaceOnUse">
<stop stop-color="#EDF2F7"/>
<stop offset="0.5" stop-color="#F5F7FA"/>
<stop offset="1" stop-color="#E8ECF2"/>
</linearGradient>
</defs>
</svg>
