<svg width="200" height="130" viewBox="0 0 200 130" fill="none" xmlns="http://www.w3.org/2000/svg">
<g opacity="0.7">
<g clip-path="url(#clip0_5_597)">
<path d="M100 63.375L181.25 104L100 144.625L18.75 104L100 63.375Z" fill="#F2F4F7" stroke="#E8ECF0" stroke-width="0.40625"/>
<path d="M144.688 52.8125H55.3125C53.0688 52.8125 51.25 54.6313 51.25 56.875C51.25 59.1187 53.0688 60.9375 55.3125 60.9375H144.688C146.931 60.9375 148.75 59.1187 148.75 56.875C148.75 54.6313 146.931 52.8125 144.688 52.8125Z" fill="#E8ECF0" stroke="#D0D7DE" stroke-width="0.65"/>
<path d="M79.6875 32.5C79.6875 30.2563 77.8687 28.4375 75.625 28.4375C73.3813 28.4375 71.5625 30.2563 71.5625 32.5V52.8125C71.5625 55.0562 73.3813 56.875 75.625 56.875C77.8687 56.875 79.6875 55.0562 79.6875 52.8125V32.5Z" fill="#E8ECF0" stroke="#D0D7DE" stroke-width="0.65"/>
<path d="M128.438 60.9375C128.438 58.6938 126.619 56.875 124.375 56.875C122.131 56.875 120.312 58.6938 120.312 60.9375V85.3125C120.312 87.5562 122.131 89.375 124.375 89.375C126.619 89.375 128.438 87.5562 128.438 85.3125V60.9375Z" fill="#E8ECF0" stroke="#D0D7DE" stroke-width="0.65"/>
<path opacity="0.3" d="M75.625 61.75C78.3174 61.75 80.5 59.5674 80.5 56.875C80.5 54.1826 78.3174 52 75.625 52C72.9326 52 70.75 54.1826 70.75 56.875C70.75 59.5674 72.9326 61.75 75.625 61.75Z" fill="#1B4F72"/>
<path opacity="0.3" d="M124.375 61.75C127.067 61.75 129.25 59.5674 129.25 56.875C129.25 54.1826 127.067 52 124.375 52C121.683 52 119.5 54.1826 119.5 56.875C119.5 59.5674 121.683 61.75 124.375 61.75Z" fill="#1B4F72"/>
<path d="M104.875 47.9375H95.125C94.2275 47.9375 93.5 48.665 93.5 49.5625V60.9375C93.5 61.835 94.2275 62.5625 95.125 62.5625H104.875C105.772 62.5625 106.5 61.835 106.5 60.9375V49.5625C106.5 48.665 105.772 47.9375 104.875 47.9375Z" fill="white" stroke="#1B4F72" stroke-width="0.8125"/>
<path d="M100 58.5C101.795 58.5 103.25 57.0449 103.25 55.25C103.25 53.4551 101.795 52 100 52C98.2051 52 96.75 53.4551 96.75 55.25C96.75 57.0449 98.2051 58.5 100 58.5Z" stroke="#5DADE2" stroke-width="0.975"/>
<path d="M100 47.9375V43.0625" stroke="#1B4F72" stroke-width="1.21875" stroke-linecap="round"/>
<path opacity="0.5" d="M100 43.4688C101.122 43.4688 102.031 42.5593 102.031 41.4375C102.031 40.3157 101.122 39.4062 100 39.4062C98.8782 39.4062 97.9688 40.3157 97.9688 41.4375C97.9688 42.5593 98.8782 43.4688 100 43.4688Z" fill="#5DADE2"/>
<path opacity="0.7" d="M59.375 56.875H65.875M65.875 56.875L63.4375 54.4375M65.875 56.875L63.4375 59.3125" stroke="#7EC8E3" stroke-width="0.65"/>
<path opacity="0.7" d="M132.5 56.875H139M139 56.875L136.562 54.4375M139 56.875L136.562 59.3125" stroke="#7EC8E3" stroke-width="0.65"/>
<path opacity="0.4" d="M52.875 51.1875H49.625C49.1763 51.1875 48.8125 51.5513 48.8125 52V61.75C48.8125 62.1987 49.1763 62.5625 49.625 62.5625H52.875C53.3237 62.5625 53.6875 62.1987 53.6875 61.75V52C53.6875 51.5513 53.3237 51.1875 52.875 51.1875Z" fill="#1B4F72"/>
<path opacity="0.4" d="M150.375 51.1875H147.125C146.676 51.1875 146.312 51.5513 146.312 52V61.75C146.312 62.1987 146.676 62.5625 147.125 62.5625H150.375C150.824 62.5625 151.188 62.1987 151.188 61.75V52C151.188 51.5513 150.824 51.1875 150.375 51.1875Z" fill="#1B4F72"/>
<path opacity="0.85" d="M49.625 82.4688C52.093 82.4688 54.0938 80.468 54.0938 78C54.0938 75.532 52.093 73.5312 49.625 73.5312C47.157 73.5312 45.1562 75.532 45.1562 78C45.1562 80.468 47.157 82.4688 49.625 82.4688Z" fill="#0B2545"/>
<path opacity="0.7" d="M51.25 82.875H48C46.6538 82.875 45.5625 83.9663 45.5625 85.3125V93.4375C45.5625 94.7837 46.6538 95.875 48 95.875H51.25C52.5962 95.875 53.6875 94.7837 53.6875 93.4375V85.3125C53.6875 83.9663 52.5962 82.875 51.25 82.875Z" fill="#0B2545"/>
<path opacity="0.5" d="M48 95.875H47.5938C46.9207 95.875 46.375 96.4207 46.375 97.0938V104.406C46.375 105.079 46.9207 105.625 47.5938 105.625H48C48.6731 105.625 49.2188 105.079 49.2188 104.406V97.0938C49.2188 96.4207 48.6731 95.875 48 95.875Z" fill="#0B2545"/>
<path opacity="0.5" d="M51.6562 95.875H51.25C50.5769 95.875 50.0312 96.4207 50.0312 97.0938V104.406C50.0312 105.079 50.5769 105.625 51.25 105.625H51.6562C52.3293 105.625 52.875 105.079 52.875 104.406V97.0938C52.875 96.4207 52.3293 95.875 51.6562 95.875Z" fill="#0B2545"/>
<path opacity="0.85" d="M150.375 82.4688C152.843 82.4688 154.844 80.468 154.844 78C154.844 75.532 152.843 73.5312 150.375 73.5312C147.907 73.5312 145.906 75.532 145.906 78C145.906 80.468 147.907 82.4688 150.375 82.4688Z" fill="#1B4F72"/>
<path opacity="0.7" d="M152 82.875H148.75C147.404 82.875 146.312 83.9663 146.312 85.3125V93.4375C146.312 94.7837 147.404 95.875 148.75 95.875H152C153.346 95.875 154.438 94.7837 154.438 93.4375V85.3125C154.438 83.9663 153.346 82.875 152 82.875Z" fill="#1B4F72"/>
<path opacity="0.5" d="M148.75 95.875H148.344C147.671 95.875 147.125 96.4207 147.125 97.0938V104.406C147.125 105.079 147.671 105.625 148.344 105.625H148.75C149.423 105.625 149.969 105.079 149.969 104.406V97.0938C149.969 96.4207 149.423 95.875 148.75 95.875Z" fill="#1B4F72"/>
<path opacity="0.5" d="M152.406 95.875H152C151.327 95.875 150.781 96.4207 150.781 97.0938V104.406C150.781 105.079 151.327 105.625 152 105.625H152.406C153.079 105.625 153.625 105.079 153.625 104.406V97.0938C153.625 96.4207 153.079 95.875 152.406 95.875Z" fill="#1B4F72"/>
</g>
</g>
<defs>
<clipPath id="clip0_5_597">
<rect width="200" height="130" fill="white"/>
</clipPath>
</defs>
</svg>
