<svg width="200" height="130" viewBox="0 0 200 130" fill="none" xmlns="http://www.w3.org/2000/svg">
<g opacity="0.7">
<g clip-path="url(#clip0_5_475)">
<path d="M100 56.875L181.25 97.5L100 138.125L18.75 97.5L100 56.875Z" fill="#F2F4F7" stroke="#E8ECF0" stroke-width="0.40625"/>
<path d="M121.938 32.5H78.0625C76.7163 32.5 75.625 33.5913 75.625 34.9375V64.1875C75.625 65.5337 76.7163 66.625 78.0625 66.625H121.938C123.284 66.625 124.375 65.5337 124.375 64.1875V34.9375C124.375 33.5913 123.284 32.5 121.938 32.5Z" fill="white" stroke="#D0D7DE" stroke-width="0.8125"/>
<path d="M120.312 35.75H79.6875C79.2388 35.75 78.875 36.1138 78.875 36.5625V62.5625C78.875 63.0112 79.2388 63.375 79.6875 63.375H120.312C120.761 63.375 121.125 63.0112 121.125 62.5625V36.5625C121.125 36.1138 120.761 35.75 120.312 35.75Z" fill="#F2F4F7"/>
<path d="M83.75 43.875H95.125" stroke="#1B4F72" stroke-width="1.21875" stroke-linecap="round"/>
<path d="M100 47.125C101.795 47.125 103.25 45.6699 103.25 43.875C103.25 42.0801 101.795 40.625 100 40.625C98.2051 40.625 96.75 42.0801 96.75 43.875C96.75 45.6699 98.2051 47.125 100 47.125Z" stroke="#7EC8E3" stroke-width="0.975"/>
<path d="M104.875 43.875H116.25" stroke="#1B4F72" stroke-width="1.21875" stroke-linecap="round"/>
<path d="M92.2812 50.375H84.9688C84.2957 50.375 83.75 50.9207 83.75 51.5938V55.6562C83.75 56.3293 84.2957 56.875 84.9688 56.875H92.2812C92.9543 56.875 93.5 56.3293 93.5 55.6562V51.5938C93.5 50.9207 92.9543 50.375 92.2812 50.375Z" fill="#B8E2F2" fill-opacity="0.3" stroke="#5DADE2" stroke-width="0.8125"/>
<path d="M110.156 50.375H102.844C102.171 50.375 101.625 50.9207 101.625 51.5938V55.6562C101.625 56.3293 102.171 56.875 102.844 56.875H110.156C110.829 56.875 111.375 56.3293 111.375 55.6562V51.5938C111.375 50.9207 110.829 50.375 110.156 50.375Z" fill="#B8E2F2" fill-opacity="0.3" stroke="#5DADE2" stroke-width="0.8125"/>
<path d="M93.5 53.625H101.625" stroke="#1B4F72" stroke-width="0.8125" stroke-linecap="round" stroke-dasharray="1.62 1.62"/>
<path d="M102.438 66.625H97.5625C97.1138 66.625 96.75 66.9888 96.75 67.4375V80.4375C96.75 80.8862 97.1138 81.25 97.5625 81.25H102.438C102.886 81.25 103.25 80.8862 103.25 80.4375V67.4375C103.25 66.9888 102.886 66.625 102.438 66.625Z" fill="#E8ECF0"/>
<path opacity="0.85" d="M61 77.5938C63.468 77.5938 65.4688 75.593 65.4688 73.125C65.4688 70.657 63.468 68.6562 61 68.6562C58.532 68.6562 56.5312 70.657 56.5312 73.125C56.5312 75.593 58.532 77.5938 61 77.5938Z" fill="#0B2545"/>
<path opacity="0.7" d="M62.625 78H59.375C58.0288 78 56.9375 79.0913 56.9375 80.4375V88.5625C56.9375 89.9087 58.0288 91 59.375 91H62.625C63.9712 91 65.0625 89.9087 65.0625 88.5625V80.4375C65.0625 79.0913 63.9712 78 62.625 78Z" fill="#0B2545"/>
<path opacity="0.5" d="M59.375 91H58.9688C58.2957 91 57.75 91.5457 57.75 92.2188V99.5312C57.75 100.204 58.2957 100.75 58.9688 100.75H59.375C60.0481 100.75 60.5938 100.204 60.5938 99.5312V92.2188C60.5938 91.5457 60.0481 91 59.375 91Z" fill="#0B2545"/>
<path opacity="0.5" d="M63.0312 91H62.625C61.9519 91 61.4062 91.5457 61.4062 92.2188V99.5312C61.4062 100.204 61.9519 100.75 62.625 100.75H63.0312C63.7043 100.75 64.25 100.204 64.25 99.5312V92.2188C64.25 91.5457 63.7043 91 63.0312 91Z" fill="#0B2545"/>
<path opacity="0.85" d="M139 77.5938C141.468 77.5938 143.469 75.593 143.469 73.125C143.469 70.657 141.468 68.6562 139 68.6562C136.532 68.6562 134.531 70.657 134.531 73.125C134.531 75.593 136.532 77.5938 139 77.5938Z" fill="#1B4F72"/>
<path opacity="0.7" d="M140.625 78H137.375C136.029 78 134.938 79.0913 134.938 80.4375V88.5625C134.938 89.9087 136.029 91 137.375 91H140.625C141.971 91 143.062 89.9087 143.062 88.5625V80.4375C143.062 79.0913 141.971 78 140.625 78Z" fill="#1B4F72"/>
<path opacity="0.5" d="M137.375 91H136.969C136.296 91 135.75 91.5457 135.75 92.2188V99.5312C135.75 100.204 136.296 100.75 136.969 100.75H137.375C138.048 100.75 138.594 100.204 138.594 99.5312V92.2188C138.594 91.5457 138.048 91 137.375 91Z" fill="#1B4F72"/>
<path opacity="0.5" d="M141.031 91H140.625C139.952 91 139.406 91.5457 139.406 92.2188V99.5312C139.406 100.204 139.952 100.75 140.625 100.75H141.031C141.704 100.75 142.25 100.204 142.25 99.5312V92.2188C142.25 91.5457 141.704 91 141.031 91Z" fill="#1B4F72"/>
<path d="M139.406 71.5H133.719C133.046 71.5 132.5 72.0457 132.5 72.7188V81.6562C132.5 82.3293 133.046 82.875 133.719 82.875H139.406C140.079 82.875 140.625 82.3293 140.625 81.6562V72.7188C140.625 72.0457 140.079 71.5 139.406 71.5Z" fill="white" stroke="#D0D7DE" stroke-width="0.56875"/>
<path d="M134.531 74.75H138.594" stroke="#E8ECF0" stroke-width="0.56875"/>
<path d="M134.531 77.1875H138.594" stroke="#E8ECF0" stroke-width="0.56875"/>
<path d="M134.531 79.625H136.969" stroke="#E8ECF0" stroke-width="0.56875"/>
</g>
</g>
<defs>
<clipPath id="clip0_5_475">
<rect width="200" height="130" fill="white"/>
</clipPath>
</defs>
</svg>
